<svg id="图层_1" data-name="图层 1" 
    xmlns="http://www.w3.org/2000/svg" viewBox="0 0 360 260">
    <defs>
        <style>.cls-1{opacity:0.2;}.cls-2{fill:#fff;}</style>
    </defs>
    <title>签到</title>
    <rect class="cls-1" x="0.5" width="359" height="260"/>
    <path class="cls-2" d="M105.12,176.77v.63H96.7v-.63h3.57v-7.42h.66v2.94h3.59v.64h-3.59v3.84Z"/>
    <path class="cls-2" d="M110.5,173.13a8.05,8.05,0,0,0-1.55-1l.34-.44a7.17,7.17,0,0,1,1.56.91ZM109.23,177a26.23,26.23,0,0,0,1.31-3.09l.48.36c-.35,1-.84,2.19-1.23,3.08Zm.58-8a8.24,8.24,0,0,1,1.64.95l-.38.48a8.42,8.42,0,0,0-1.62-1Zm2.91,1.55a9.49,9.49,0,0,1-1,1.61,4.42,4.42,0,0,0-.54-.35,7.91,7.91,0,0,0,1.61-2.94l.61.15a7.22,7.22,0,0,1-.36.95h4.41v.58Zm4.11,3.5c0,.63-.09,1.14-.13,1.55h.66v.56h-.72a2.09,2.09,0,0,1-.32,1,.81.81,0,0,1-.64.31,10.75,10.75,0,0,1-1.21,0,1.29,1.29,0,0,0-.17-.54c.5,0,1,0,1.14,0s.27,0,.35-.13a1.43,1.43,0,0,0,.23-.64h-4.25c.11-.56.24-1.32.34-2.11h-.88v-.58h1c.09-.68.18-1.37.24-2h4.51v.31c0,.62-.06,1.16-.09,1.64h.76V174Zm-.73,1.55c0-.4.09-.9.14-1.55H112.7c-.08.56-.15,1.09-.23,1.55ZM113,172c-.06.45-.11.92-.18,1.4h3.49c0-.42,0-.87.07-1.4Zm1.74,3.49a6.8,6.8,0,0,0-1.16-1.22l.38-.24a6.48,6.48,0,0,1,1.17,1.18Zm-.55-3.46a5.17,5.17,0,0,1,1.1,1.07l-.37.27a5.43,5.43,0,0,0-1.09-1.11Z"/>
    <path class="cls-2" d="M124.6,169.39a8.71,8.71,0,0,1-.95,1.37,6.46,6.46,0,0,1,.65,3.21,6.27,6.27,0,0,1-.49,3.08.86.86,0,0,1-.55.3,5,5,0,0,1-1.15,0,1.43,1.43,0,0,0-.2-.64,5.81,5.81,0,0,0,1.09,0,.42.42,0,0,0,.33-.16,6.48,6.48,0,0,0,.33-2.64c0-.21,0-.43,0-.64a8.15,8.15,0,0,1-1.82,1.94,2.83,2.83,0,0,0-.38-.55,6.53,6.53,0,0,0,2.1-2.29,4.42,4.42,0,0,0-.33-1.15,9.12,9.12,0,0,1-1.3,1.18,2.92,2.92,0,0,0-.39-.55,7.43,7.43,0,0,0,1.4-1.19,5.86,5.86,0,0,0-1.1-1.23l.46-.35a6,6,0,0,1,1.05,1.11,6.64,6.64,0,0,0,.78-1.15Zm5.35,7.16v.6h-5.54v-.6H127v-3h-2v-.61h2v-2.7h-2.16v-.6h5v.6h-2.2v2.7h2.08v.61h-2.08v3Z"/>
    <path class="cls-2" d="M141.4,176.68c.39,0,.46-.19.5-1.1a1.67,1.67,0,0,0,.58.26c-.08,1.1-.28,1.43-1,1.43h-1.87c-.89,0-1.16-.22-1.16-1v-.13a10.42,10.42,0,0,1-1.64.95,2.58,2.58,0,0,0-.44-.48,10.11,10.11,0,0,0,2.08-1.22v-3.58h-1.09c-.33,2.65-1.11,4.42-3.06,5.62a3.13,3.13,0,0,0-.47-.53c1.86-1,2.59-2.66,2.89-5.09H134v-.6h2.78c.07-.7.1-1.46.13-2.28l.66,0c0,.81-.08,1.56-.14,2.26h4.94v.6H139v3.06a9.16,9.16,0,0,0,2-2.52l.57.24a10.59,10.59,0,0,1-2.61,3.08v.6c0,.36.09.45.57.45Zm-.59-5.8a14.11,14.11,0,0,0-1.72-1.41l.4-.34a14.44,14.44,0,0,1,1.74,1.35Z"/>
    <path class="cls-2" d="M148.38,171.61a6.06,6.06,0,0,1-1.72,1.46,2,2,0,0,0-.35-.48,4.91,4.91,0,0,0,1.87-1.56H146.4v-.53h2v-1.78H149v1.78h2V171h-1.86c.47.28,1.35.85,1.59,1l-.35.47c-.25-.23-.87-.71-1.34-1v1.36h-.59Zm1.46,5.06a6.92,6.92,0,0,0-.85-.54,6.19,6.19,0,0,1-2.36,1.16,1.73,1.73,0,0,0-.3-.48,5.74,5.74,0,0,0,2.16-.95,14.16,14.16,0,0,0-1.47-.66,11,11,0,0,0,.62-1h-1v-.54h1.3a5.36,5.36,0,0,0,.26-.62l.56.1a4.61,4.61,0,0,1-.22.51h1.61l.1,0,.35.14a5,5,0,0,1-1.15,2c.31.17.61.35.83.49Zm-2.46-6.26a5,5,0,0,0-.61-1.24l.46-.19a4.06,4.06,0,0,1,.63,1.23Zm.85,3.74a7.17,7.17,0,0,1-.45.81c.38.16.78.34,1.14.52a3.67,3.67,0,0,0,.92-1.33Zm2.43-5a13.16,13.16,0,0,1-.85,1.23l-.41-.2a8.42,8.42,0,0,0,.72-1.27Zm3.53,2a11.7,11.7,0,0,1-1,3.6,4.83,4.83,0,0,0,1.92,2,1.9,1.9,0,0,0-.42.49,5.14,5.14,0,0,1-1.83-2,6.08,6.08,0,0,1-2.28,2.06,2.48,2.48,0,0,0-.36-.5,5.27,5.27,0,0,0,2.33-2.15,12.3,12.3,0,0,1-.86-2.64,6.27,6.27,0,0,1-.67,1.31,4,4,0,0,0-.47-.38,10.12,10.12,0,0,0,1.4-4.22l.57.09a15.14,15.14,0,0,1-.33,1.66h2.72v.59Zm-2.2,0a13.28,13.28,0,0,0,.85,3,11.44,11.44,0,0,0,.76-3Z"/>
    <path class="cls-2" d="M167,174.46h-3.73v2.16c0,.39-.1.57-.42.67a5.43,5.43,0,0,1-1.59.11,2.43,2.43,0,0,0-.28-.63c.65,0,1.24,0,1.41,0s.22,0,.22-.18v-2.15H158.9v-.6h3.73v-.61a8.51,8.51,0,0,0,1.75-1.17h-3.93v-.6H165l.14,0,.43.33a10.1,10.1,0,0,1-2.3,1.7v.38H167Zm-7.38-2.79H159v-1.9h3.76a5.4,5.4,0,0,0-.51-.87l.61-.2a5.65,5.65,0,0,1,.65,1.07h3.38v1.9h-.65v-1.3h-6.62Z"/>
    <path class="cls-2" d="M174.18,174.39c-.17-.31-.61-1-.95-1.5v4.51h-.61v-4.34a10.16,10.16,0,0,1-1.44,2.59,2.76,2.76,0,0,0-.32-.56,10,10,0,0,0,1.67-3.07H171v-.59h1.63v-1.51c-.46.09-.92.18-1.36.24a2.59,2.59,0,0,0-.18-.49,14.16,14.16,0,0,0,3-.76l.4.49a8.63,8.63,0,0,1-1.26.4v1.63h1.43V172h-1.43v.18c.29.32,1.13,1.42,1.34,1.69Zm4.24.52v2.49h-.62V175l-3.14.5-.1-.58,3.25-.52v-5.64h.62v5.55l1.14-.19.1.58Zm-1.75-1.26a8.44,8.44,0,0,0-1.7-1.39l.39-.36a8.18,8.18,0,0,1,1.73,1.33Zm.21-2.51a7.09,7.09,0,0,0-1.54-1.33l.41-.37a7.08,7.08,0,0,1,1.56,1.29Z"/>
    <path class="cls-2" d="M185.46,173.84v2.76c0,.38-.1.55-.33.66a3.89,3.89,0,0,1-1.26.11,3,3,0,0,0-.2-.58h1c.13,0,.18,0,.18-.19V174l-1.17.35-.19-.62,1.36-.36v-2.15H183.6v-.59h1.23v-1.93h.63v1.93h1.07v.59h-1.07v2l1.08-.31.07.58Zm6.17-1.38a7,7,0,0,1-1.95,3.12,6.4,6.4,0,0,0,2.5,1.26,3,3,0,0,0-.41.55,7,7,0,0,1-2.56-1.4,9,9,0,0,1-2.74,1.39,2.33,2.33,0,0,0-.36-.57,8.09,8.09,0,0,0,2.63-1.25,7.7,7.7,0,0,1-1.6-2.68h-.28v-.58h2.06v-1.47h-2.27v-.59h2.27v-1.52h.62v1.52h2.31v.59h-2.31v1.47h1.58l.11,0Zm-3.85.43a6.31,6.31,0,0,0,1.44,2.28,6.08,6.08,0,0,0,1.61-2.28Z"/>
    <path class="cls-2" d="M199.31,176.54c0,.34-.08.53-.29.64a3.23,3.23,0,0,1-1.19.11,3.18,3.18,0,0,0-.18-.59c.43,0,.81,0,.92,0s.17,0,.17-.18v-2.36h-1.49a8.93,8.93,0,0,1-.71,3.21,2.71,2.71,0,0,0-.51-.3,11.13,11.13,0,0,0,.7-4.61v-3.4h2.58Zm-.57-3v-1.69H197.3v.58c0,.34,0,.72,0,1.11Zm-1.43-3.92v1.65h1.43v-1.65Zm6.88,3.39a6.16,6.16,0,0,1-1.72,2.75,6.29,6.29,0,0,0,2.3,1,2.49,2.49,0,0,0-.37.56,6.56,6.56,0,0,1-2.39-1.22,7.57,7.57,0,0,1-2.35,1.18,2.86,2.86,0,0,0-.31-.55,6.74,6.74,0,0,0,2.21-1,6.78,6.78,0,0,1-1.46-2.25l.09,0h-.49v-.6h4l.09,0Zm-3-2.91a2.8,2.8,0,0,1-1.34,2.53,2.69,2.69,0,0,0-.4-.46,2.23,2.23,0,0,0,1.17-2.08v-1h2.86v2.22c0,.27,0,.35.14.35h.6a1.91,1.91,0,0,0,.4,0c0,.16,0,.4,0,.55a1.45,1.45,0,0,1-.45,0h-.64c-.57,0-.68-.25-.68-.92v-1.61h-1.71Zm-.5,3.36a5.67,5.67,0,0,0,1.35,1.92,5.36,5.36,0,0,0,1.4-1.92Z"/>
    <path class="cls-2" d="M211.33,168.95a15.64,15.64,0,0,1-.89,2v6.4h-.63v-5.33a12.06,12.06,0,0,1-.85,1.13,4.24,4.24,0,0,0-.37-.62,10.85,10.85,0,0,0,2.15-3.81Zm2.33.17a8,8,0,0,1-2.33,3.94,2.34,2.34,0,0,0-.4-.54A6.62,6.62,0,0,0,213,169Zm2.6,3.33s0,.22,0,.3c-.14,2.91-.28,3.93-.57,4.27a.76.76,0,0,1-.61.28,8.37,8.37,0,0,1-1.08,0,1.63,1.63,0,0,0-.18-.59c.44,0,.85,0,1,0s.24,0,.33-.12.34-1.15.47-3.6h-1.77c-.25,2.11-.89,3.49-2.3,4.36a2.47,2.47,0,0,0-.44-.47c1.33-.74,1.92-2,2.12-3.89H212v-.59Zm-.94-3.52a5.87,5.87,0,0,0,2.08,3.52,1.36,1.36,0,0,0-.44.52,6.66,6.66,0,0,1-2.21-3.94Z"/>
    <path class="cls-2" d="M224.56,170.59c-.18.39-.39.79-.61,1.16h4.62v4.83c0,.4-.1.59-.39.69a6.2,6.2,0,0,1-1.64.1,2.64,2.64,0,0,0-.21-.62c.66,0,1.23,0,1.4,0s.23-.07.23-.21v-1.05h-4.07v1.88h-.62v-4.66a8,8,0,0,1-1.63,1.58,2.84,2.84,0,0,0-.41-.48,8.26,8.26,0,0,0,2.65-3.24h-2.43V170h2.7a9,9,0,0,0,.42-1.23l.64.14c-.11.37-.24.73-.38,1.09h4.87v.6Zm3.39,1.73h-4.07v1h4.07Zm0,2.65v-1.06h-4.07V175Z"/>
    <path class="cls-2" d="M236.3,169.36c-.28.77-.64,1.69-1,2.45a3,3,0,0,1,.87,2.09,1.31,1.31,0,0,1-.36,1.07,1,1,0,0,1-.48.17,2.93,2.93,0,0,1-.65,0,1.31,1.31,0,0,0-.17-.56,3,3,0,0,0,.58,0,.58.58,0,0,0,.3-.09.85.85,0,0,0,.21-.67,2.86,2.86,0,0,0-.89-2c.29-.69.59-1.53.8-2.16h-1.46v7.67h-.57v-8.25h2.28l.1,0Zm5.2,4.71a13,13,0,0,1-1.69,1.16,4.19,4.19,0,0,0,1.89,1.56,3.07,3.07,0,0,0-.43.54,5.64,5.64,0,0,1-2.88-4h-1v3.21l1.74-.43a3.51,3.51,0,0,0,0,.57,11.25,11.25,0,0,0-2.43.76,2.06,2.06,0,0,0-.28-.53.64.64,0,0,0,.33-.64v-7.07h4.14v4.12h-2a6.52,6.52,0,0,0,.6,1.49,12,12,0,0,0,1.54-1.15Zm-4.08-4.34v1.22h2.91v-1.22Zm0,3h2.91v-1.25h-2.91Z"/>
    <path class="cls-2" d="M248.81,169.3a11,11,0,0,1-2.68,3.9,6,6,0,0,0-.59-.45,8.93,8.93,0,0,0,2.61-3.64Zm2.61,4.59a23.26,23.26,0,0,1,2.29,3.18l-.61.33c-.16-.29-.39-.67-.65-1.05-5.05.33-5.55.36-5.87.48a5.28,5.28,0,0,0-.25-.66c.24-.06.49-.37.85-.81a20.63,20.63,0,0,0,2.3-3.65l.66.3a24.61,24.61,0,0,1-2.67,4l4.58-.26c-.39-.56-.83-1.13-1.22-1.61Zm-.15-4.83a11.72,11.72,0,0,0,2.86,3.62,3.58,3.58,0,0,0-.53.54,15,15,0,0,1-2.93-3.92Z"/>
    <path class="cls-2" d="M265.46,176.49c0,.46-.1.67-.41.79a6.63,6.63,0,0,1-1.76.12,2.54,2.54,0,0,0-.22-.69c.67,0,1.32,0,1.52,0s.23-.06.23-.23V170H258v-.61h7.5Zm-1.73-4.82H258v-.57h5.72Zm-.68,4.07h-3.79v.7h-.62v-3.69H263Zm-3.79-2.42v1.86h3.17v-1.86Z"/>
    <path class="cls-2" d="M211.77,67.73a.33.33,0,0,0-.05-.15l-.08-.13c0-.12-.09-.36-.2-.77l-2.83-3.3-.35.16.4,1.74A3.44,3.44,0,0,0,208,65a1.16,1.16,0,0,1-.62-.48,1.21,1.21,0,0,0-.52-.34c-.43-.17-.66-.26-.66-.27l-1-.48a6.43,6.43,0,0,1-.92-.58,4.13,4.13,0,0,1-.63-.69c-.28-.39-.48-.63-.58-.74-.38-.38-1-.93-1.75-1.61,0-.05-.11-.07-.2-.08a.28.28,0,0,0-.2,0,.49.49,0,0,0-.11.2.31.31,0,0,0,0,.24,9,9,0,0,0,.73,2.37,18,18,0,0,1,.85,2.36,9.28,9.28,0,0,0,.44,1.29l-.16.11c-.78-.74-1.29-1.24-1.55-1.51a1.62,1.62,0,0,1-.23-.3l-.22-.32-.57-.61c-.22-.26-.4-.46-.51-.62-.47-.62-.92-1.28-1.35-2-.22-.34-.44-.44-.7-.34-.05,0-.09.13-.11.3a.77.77,0,0,0,0,.4c.12.31.5,1.29,1.16,2.93l-.16.05.24.34c.26.35.46.61.59.78a7.38,7.38,0,0,0,.59.77,3.45,3.45,0,0,1,.36.43c.05.07.05.19,0,.38a3.25,3.25,0,0,0-.34-.23,1.72,1.72,0,0,1-.38-.28c-.11-.12-.3-.32-.54-.63a5.63,5.63,0,0,0-.57-.62c-.23-.22-.62-.55-1.18-1s-.92-.74-1.18-1a.73.73,0,0,0-.47-.23.64.64,0,0,0-.46.15,6,6,0,0,0,1,1.9c.74,1,1.16,1.59,1.27,1.75a2.81,2.81,0,0,0-.83-.19,1.42,1.42,0,0,1-.82-.36,4.17,4.17,0,0,0-.7-.46,2.49,2.49,0,0,1-.67-.47,6.85,6.85,0,0,0-.81-.7c-.44-.32-.71-.54-.83-.65a3.39,3.39,0,0,0-.09-.55,1.16,1.16,0,0,0-.22-.48,3.77,3.77,0,0,0-.62-.54c-.16-.11-.39-.27-.69-.5l-.66-.57-.2.13a.38.38,0,0,1-.22.05.31.31,0,0,1-.24-.12.41.41,0,0,1,0-.31.25.25,0,0,0,0-.2,1.38,1.38,0,0,0-.07-.22h-.08l-.15.51-1.29.3a.32.32,0,0,1-.16,0h-.17a1.44,1.44,0,0,1-.71-.19,2.11,2.11,0,0,1-.36-.17,1.77,1.77,0,0,0-.36-.2c-.08,0-.34-.11-.75-.23l0,.12.35.32a1.39,1.39,0,0,1-.58.05c-.16,0-.27-.17-.32-.42l-.42,0a1.25,1.25,0,0,1-.39,0,2.75,2.75,0,0,1-.43-.15c-.08,0-.22-.11-.42-.19a7.6,7.6,0,0,1-1.29-1.13c-.12-.13-.24-.3-.39-.46l-.94-.79a.41.41,0,0,0-.13.28.89.89,0,0,1,.81.74v.16s-.07,0-.15,0-.16,0-.15-.08a1.27,1.27,0,0,0-.07-.44c-.44-.11-.71-.24-.77-.42a2.83,2.83,0,0,0-.31-.61l-.94-.63v.26c1.1,1.25,1.94,2.15,2.48,2.72h0c-.19-.05-.59-.19-1.22-.43l-.16-.09a.36.36,0,0,0-.17-.07.91.91,0,0,1-.83-.74l-.67.08a2.67,2.67,0,0,0-.65.19l-.58.26a1.44,1.44,0,0,1-.61.11.57.57,0,0,0-.3.11,1,1,0,0,1-.46.15,3.06,3.06,0,0,1-.48.05c-.11,0-.18,0-.2-.11a.45.45,0,0,0-.07-.11l-.51,0c-.61-.34-1.12-.59-1.51-.79a12.66,12.66,0,0,0-1.71-.69l.47.22.16.07c.17.09.31.13.36.16a4.21,4.21,0,0,1,1.14.82,3.35,3.35,0,0,1-1-.34c-.08-.07-.2-.13-.34-.24a3.38,3.38,0,0,0,1,.74l.86.38a3.08,3.08,0,0,1,.63.32h0a3.67,3.67,0,0,1-1.08.23,1.76,1.76,0,0,1-1.14-.36,1.09,1.09,0,0,0,0,.3s0,0,0,0a1.09,1.09,0,0,0,.27.58,5.55,5.55,0,0,1,.71.62l-.58-.11,0,.07.31.23c-.9,0-1.43-.05-1.56,0a2.5,2.5,0,0,0-1.48.59h1.08v.51h-.4a4.19,4.19,0,0,1-.61-.19,4.74,4.74,0,0,0-.62-.16c-.24,0-.71-.08-1.41-.13h-.27a.4.4,0,0,1-.26,0l-.11,0a8.93,8.93,0,0,1-1.39-.7,7.69,7.69,0,0,0-.73-.42,1,1,0,0,1,.09.23l-.87-.38a3.27,3.27,0,0,1-.79-.44H163v.05a13.9,13.9,0,0,1,2,.94c.22.12.54.27,1,.48a1.92,1.92,0,0,1,.39.32s0,.05-.07.07c.09.22.09.35,0,.43-.35.36-.54.57-.59.63a1.28,1.28,0,0,0-.27.82.12.12,0,0,1-.05.08c-.05,0-.08.05-.08.08a1,1,0,0,1-.35.34.36.36,0,0,0,0,.52c.05.08,0,.2,0,.38a3.66,3.66,0,0,1-.2.39.75.75,0,0,1-.54.24c-.32,0-.79,0-1.44-.09a2,2,0,0,0-.7.15l-.87.46-.07-.66-.46.59h-3.16V67h2.09c-.38.08-.82.16-1.35.23-.3,0-.74.11-1.33.17a23.73,23.73,0,0,0-2.37.44c-.35.08-1.21.31-2.57.71a9.83,9.83,0,0,0,1.57-.22l1.56-.24a1.56,1.56,0,0,1-.66.31,1.17,1.17,0,0,0-.66.46L153,69a7.06,7.06,0,0,0,.83,0,3.64,3.64,0,0,1,.82,0l.58.15a1.7,1.7,0,0,0,.62,0l.58-.07v.09l-.42.13a.49.49,0,0,1-.38.48,1.36,1.36,0,0,0-.57.31,1.17,1.17,0,0,1,.81-.07l.74.2.44,1.25.59.08.07.51-.31.19s-.35-.16-.93-.46a1.55,1.55,0,0,0,.23.5.9.9,0,0,0,.43,0l-.75,1.32.16.27.12-.35c.08.26.23.34.46.24a.83.83,0,0,1,.5-.09V74h-1.09a.36.36,0,0,0,.4.24.68.68,0,0,1,.52.15l-1.32.34,0-.09.22-.31a.87.87,0,0,1-.48-.13c-.11-.11-.11-.27,0-.51l-.26,0a.45.45,0,0,0-.2.05.55.55,0,0,0-.22.22c-.05.09,0,.19.08.28s.31.26.78.61l-1.33.38v.08l.23.05-.47.35,1.75-.4a1.66,1.66,0,0,1-.86.39,1.09,1.09,0,0,0-.78.42l.71-.24a2.78,2.78,0,0,1-.61.87,4.48,4.48,0,0,1-.42.34l-.44.3.5.2a3.57,3.57,0,0,0-1.27.61,3,3,0,0,0-.87,1.14L151,78.59l-.93.23a2.27,2.27,0,0,0-.66.24,1,1,0,0,0-.38.63.93.93,0,0,1-.19.28,3.42,3.42,0,0,1-.3.26l-.58.47a3.18,3.18,0,0,0-.52.5,8.8,8.8,0,0,0-.92,1.36l-.75,1a5.33,5.33,0,0,0-.4.63c0,.07-.07.2-.15.43a1.24,1.24,0,0,1-.17.38,7.18,7.18,0,0,1-.57.63c-.13.12-.31.3-.52.51,0,.09,0,.2-.07.35a.42.42,0,0,1-.08.22,1.07,1.07,0,0,1-.48.17s-.05-.09-.11-.3l-.55.13-.12.12.73.44a3,3,0,0,0-.36.31.62.62,0,0,1-.31.16,1.63,1.63,0,0,0-.86.31,1.38,1.38,0,0,0-.43.85l1.22-1.09.16.16-1.49,1.59.11.16a2.13,2.13,0,0,0,.35-.13l.34-.26.05.09-.3.61.58-.17-.22.62.5-.2a1.2,1.2,0,0,0,.32-.23l.08.12c-.05,0-.13.12-.24.31a.47.47,0,0,1-.39.24,2.73,2.73,0,0,0-.48.05.47.47,0,0,1-.42-.26l-.27.32c.12.15-.23.65-1.06,1.49.38-.2.51-.22.36,0,.59-.44.82-.52.69-.26l.66-.34.08.13a2.22,2.22,0,0,1-.35.2,1.06,1.06,0,0,0-.31.27.41.41,0,0,0,0,.27.77.77,0,0,0,.11.31.36.36,0,0,0,.19.13l.28.11a2.73,2.73,0,0,0,0,.5.38.38,0,0,1-.32.42c.22.15.39.13.51-.05s.28-.38.36-.39a1.93,1.93,0,0,1-.15.26.75.75,0,0,0-.09.23.41.41,0,0,0,0,.17,1.07,1.07,0,0,0,.05.18,1.32,1.32,0,0,1,.17-.23,7,7,0,0,1,.7-.32l-.07.38-.42-.08a2.36,2.36,0,0,1-.05,1.63,5.17,5.17,0,0,0-.36,1.51l.3,0c.11,0,.19,0,.23,0s.23.12.31.07l.2-.22h-1c.15-.12.27-.2.32-.26a1,1,0,0,0,.24-.23.34.34,0,0,0,.05-.22c0-.17,0-.26,0-.27a.23.23,0,0,1-.16-.34,1.07,1.07,0,0,0,.11-.4c.35.08.58.07.69-.05s.12-.35,0-.7l-.26.62-.07-.77.59-.48a1.2,1.2,0,0,1,.17-.81,1.44,1.44,0,0,1,.55-.67s0,.12,0,.22a.85.85,0,0,1,0,.19c-.11.34-.28.81-.52,1.43a1,1,0,0,0,.07.55.76.76,0,0,0,.31.43L144,96l.39.23h-.46c-.15,0-.22.16-.2.39a1.21,1.21,0,0,1-.35.11l0-.12.32-.51a.4.4,0,0,0-.46.27c0,.09-.09.26-.16.47l.69.2a.69.69,0,0,0,.67-.2l.05.13-.26.3c.11.15.12.28,0,.39a1.07,1.07,0,0,1-.36.19l.2.34-.61.3c.19-.48.27-.75.28-.81a.28.28,0,0,0-.05-.24s0,0-.09,0h-.09l-.4.48-.17-.16-.19.28a2.79,2.79,0,0,0,.24.23q.1.12.08.16a1.42,1.42,0,0,1-.32.54s-.05.15-.15.42l.13.05.32-.34h.09l0,.47-.7,0c.26.16.34.34.23.54a4.17,4.17,0,0,0-.23,1.78l.5-1.6c-.2,2.41-.23,3.53-.05,3.35l.3-2.48.17-.48a4.22,4.22,0,0,0,.54.62,1.87,1.87,0,0,0,.48.26c.07,0,.34.11.77.22l-.39,1a1.43,1.43,0,0,1,.19.87,1.65,1.65,0,0,1-.31,1l.26.32s-.07.11-.2.22l-.26.16.27.2a.64.64,0,0,0-.16.34,6.7,6.7,0,0,0,.05.82s0,0,0,0l-.36.3,0,.13h.59c-.16.07-.26.26-.27.54a.46.46,0,0,1-.36.47s-.07.08-.09.24,0,.3,0,.52h-.17l-.66-1-.61-.16a1.71,1.71,0,0,0,.09-.79,2.92,2.92,0,0,0-.55-.73l-.31.27-.58-1.35a1.19,1.19,0,0,1,0-.2.21.21,0,0,0-.07-.13l-.94-.32c0,.48,0,.75,0,.81a1.52,1.52,0,0,0,.07.4,2.54,2.54,0,0,1,0,.39,1,1,0,0,0,.54,1l-.38.85.79-.24-.08,1.14a.58.58,0,0,0-.44-.07.55.55,0,0,0-.16.39,1.51,1.51,0,0,1-.08.19l-.09.16.5,1.28a2.68,2.68,0,0,0-.79.43c-.07.08-.07.3,0,.63l.27-.13-.16.34c.36.32.57.48.59.52s.2.28.19.38-.13.16-.34.22-.39.15-.44.27a.62.62,0,0,0,0,.52,1.11,1.11,0,0,0,.23.43c.05.08.19.2.35.38a1.14,1.14,0,0,0,.57.3,5.62,5.62,0,0,1,.58.13.5.5,0,0,1,.28.22.42.42,0,0,1,0,.35l.05.09.24-.13.4,1.09-.3-.11-.3.19L142,117c-.11.07-.16.11-.15.15s0,.39,0,.71a1.26,1.26,0,0,0,.24.69,3.63,3.63,0,0,1,.35.58c.12.27.22.47.28.59a5.71,5.71,0,0,1,.3.65,1.39,1.39,0,0,0,.23.52,3.92,3.92,0,0,0,.34.34l.38.32,1.1,1.14a1.17,1.17,0,0,1,.27.81.75.75,0,0,0,.15.66,4,4,0,0,1,.36.51c.26,0,.34.05.26.18s-.17.24-.16.26l.34,0-.38.54a.8.8,0,0,1,.52.31.9.9,0,0,1,.23.57c.15.05.27.11.34.12a.69.69,0,0,1,.28.19c.13.15.28.34.46.57s.34.44.42.55l.32-.26v-1.1l.34.13-.23.31,1.1,1.55-.07,0-.75-.57a1.18,1.18,0,0,0,.11.55.36.36,0,0,0,.4.15s.07,0,.11.07l.07.09-.43.16-.17-.22a5.06,5.06,0,0,0,1.13,1.4c.61.5,1.06.89,1.35,1.17a.11.11,0,0,0,.09,0,.42.42,0,0,1,.15,0,.49.49,0,0,0,0,.54.39.39,0,0,0,.44.24.43.43,0,0,1,.31.05,1,1,0,0,1,.12.24l0,.13a.14.14,0,0,0,.05.11c.22.12.34.27.34.43a1,1,0,0,1-.28.58c.23,0,.39,0,.46.07s.08.23,0,.46l.78-.09-.46.4H154V135h-.65a11.54,11.54,0,0,1,5.5,3.36l.27.08a.51.51,0,0,1,.3.15,6.17,6.17,0,0,0,1.17.81,3.53,3.53,0,0,1,1.09.92,1.38,1.38,0,0,0,.74.46l.85.26a19.91,19.91,0,0,0,1.88.78,6.45,6.45,0,0,0,1.16.35,9.15,9.15,0,0,0,1.36.11,2.86,2.86,0,0,1,.89.26,2.89,2.89,0,0,0,.87.24,1,1,0,0,1,.9.59l.07-.32.61.13h0a4.07,4.07,0,0,1,1-.2c.22,0,.51,0,.85,0s.65.05.85.07V143l-.61-.27a.38.38,0,0,1,.31-.24,2,2,0,0,1,.39,0c.23.05.35.09.36.15a.33.33,0,0,1,0,.22,2.26,2.26,0,0,1-.09.27H176c-.07.35-.23.54-.46.55a1.36,1.36,0,0,1-.71-.24.57.57,0,0,0,.11.16l.5.22.23.12c.08,0,.15,0,.15,0s.16-.12.22-.09a.48.48,0,0,1,.13.2.52.52,0,0,0,.39.27.4.4,0,0,0,.39-.16l.31.34.4-.44a1.61,1.61,0,0,1,0,.67c0,.26.15.36.44.35l.35-.36c.13-.12.23-.22.34-.23a.82.82,0,0,1,.36,0l.39.09-.22-.26a1.13,1.13,0,0,1,.31,0,6.17,6.17,0,0,1,.73.2,1.78,1.78,0,0,0,.77.08.53.53,0,0,0,.28-.13.33.33,0,0,1,.24-.11l.93.15a.65.65,0,0,0,.23,0l.22,0a3.24,3.24,0,0,1-.22-.39,2.64,2.64,0,0,0-.23-.31c-.16-.22-.3-.32-.43-.31l-.4.08a2.43,2.43,0,0,1-.34.13l-.89-.13.08-.13c.34-.4.5-.7.47-.92s-.22-.46-.61-.74a1.81,1.81,0,0,0-.63-.22c-.15,0-.38-.07-.69-.12a.86.86,0,0,1,.27-.55c.11-.05.32,0,.63.13a.49.49,0,0,0,.2,0,.3.3,0,0,0,.16-.07.42.42,0,0,1,.31-.22c.08,0,.18.08.27.22a.3.3,0,0,0,.13,0l0-.15c.43.05.67.07.71.07a9.12,9.12,0,0,1,1.21.05,8,8,0,0,1,1.53.38,5.22,5.22,0,0,0,.67.26,2.07,2.07,0,0,0,.71.13.12.12,0,0,1,.07,0l.07.05.4.12a1.25,1.25,0,0,0,.38.11h1.28a2,2,0,0,0,.23.22l1.52.81.47.3a.85.85,0,0,0,.44.13,1,1,0,0,1,.62.13,4.86,4.86,0,0,0,.54.3,7.15,7.15,0,0,1-3.15.74c-.34,0-.85,0-1.52,0l-.65-.05a4.57,4.57,0,0,0-.66-.05.36.36,0,0,0-.2.08l-.2.12a1.29,1.29,0,0,1,.15.26c.05.11.11.16.17.17a14.66,14.66,0,0,0,1.86.54,11,11,0,0,0,3.63.11A6,6,0,0,0,194,145a13.64,13.64,0,0,1,1.52-.78l.5-.13a2.74,2.74,0,0,0,.51-.15,4.1,4.1,0,0,0,.47-.27,4.08,4.08,0,0,1,.47-.27,6.6,6.6,0,0,0,.69-.34,2.13,2.13,0,0,0,.57-.52,1,1,0,0,1,.2-.16,1.62,1.62,0,0,0,.27-.13l-.07.34h.07l.13-.43.26.2.22-.31.08.07v.32a1.67,1.67,0,0,0,.34-.28.6.6,0,0,0,.23-.24.47.47,0,0,0,0-.3c-.07-.16-.09-.28-.13-.36l.43.23c0-.11.15-.26.44-.46a.52.52,0,0,0,.17-.67l.83-1,.15.13-.23.89-.42,0v.4l.07-.09.39.31.58-.28-.22-.32.08,0,0,0,.81-1.24a.08.08,0,0,0,0-.05.14.14,0,0,1,0-.07.56.56,0,0,1,.11-.46.54.54,0,0,1,.34-.3h.34l-.15.32a.65.65,0,0,0-.07.24.16.16,0,0,0,.05.05h.08c.11,0,.16-.08.19-.15l.35-1.12,1.18-.35v-.07l-.69-.09,1.31-1.14-.51,0a1.48,1.48,0,0,1-.36-.08.62.62,0,0,0-1,.16,2,2,0,0,1-.15.3l.11.07.39-.5.13.08-.27.55.26,0a4.77,4.77,0,0,1-1.08.83c-.34.17-.57.2-.71.09a3.79,3.79,0,0,1-.51.4,1.78,1.78,0,0,1-.51,0l-.08,0-.17.3,0-.07.2-.81.35.36.73-.4-.23-.15.2-.52-.09,0-.17.38-.07,0,0-.28-.81.46,0-.11,3.07-2,.32-.13c.11,0,.17-.08.17-.11a.46.46,0,0,1,.26-.38,1.41,1.41,0,0,0,.39-.16c.28-.2.48-.34.61-.44l.32-.32a1.28,1.28,0,0,1,.31-.27A2.86,2.86,0,0,0,208,133a1,1,0,0,0,.39-.42h.07l0,.22q.57-.44.73-.61a.59.59,0,0,0,0-.12,1.82,1.82,0,0,0-.07-.19l1.32-.36c-.23-.22-.27-.39-.12-.54a2,2,0,0,0,.47-.35l-.77.15-.07-.39-.63.32a5.2,5.2,0,0,1-.65.27,2.89,2.89,0,0,0-.55.23.73.73,0,0,0-.4.44s-.07.07-.15.08l-.26,0-.09-.17.54-.46c.22-.19.38-.35.51-.48.43-.46.93-1,1.47-1.67.07-.09.28-.39.63-.93l.12-.05c.08,0,.12,0,.15-.07.34-.31.58-.55.74-.73a2.62,2.62,0,0,0,.57-.78c.07-.2.15-.32.24-.35a.88.88,0,0,1,.39,0c-.07-.38-.09-.58-.09-.59a.73.73,0,0,1,.08-.39,1.55,1.55,0,0,1,.15-.22,1,1,0,0,1,.19-.19,2.79,2.79,0,0,1,.47-.59.79.79,0,0,0,.26-.28.41.41,0,0,0,0-.39.22.22,0,0,1,0-.13.61.61,0,0,0,0-.19l.28.32.81-1.08-.38.05a1.56,1.56,0,0,0,.39-.57.9.9,0,0,1,.48-.47c0-.08,0-.15,0-.19-.47-.07-.74,0-.79.34a.72.72,0,0,1-.2.38,1.31,1.31,0,0,1-.34.16,1.84,1.84,0,0,1-.3.35,1.6,1.6,0,0,0-.26.27s0,0-.07.12-.05.08-.09.09a4.89,4.89,0,0,0-1.78,1.87.45.45,0,0,1-.13.15L211,125l-.59.43c-.05.07-.4.4-1.06,1-.43.42-.79.74-1.09,1-.79.67-1.6,1.31-2.41,1.9a9.77,9.77,0,0,1-.86.55c-.19.12-.47.3-.86.51a3.68,3.68,0,0,1-.58.32c-.23.13-.42.23-.55.32s-.43.28-.81.55a9.76,9.76,0,0,1-.82.55,1.37,1.37,0,0,1-.38.12l-.4,0v-.16l.15,0,.46-.09-.36-.09,2.49-2c.27-.2.48-.34.63-.43a1.67,1.67,0,0,0,.51-.51,3.9,3.9,0,0,1,.58-.62,1.51,1.51,0,0,0,.48-.69c0-.07.11-.13.27-.2a2.05,2.05,0,0,0,.4-.17L206,127h.42l-.35-.28.94-.09.15-.31-.24-.3a.69.69,0,0,1,.11-.19c0-.08.11-.07.2,0l.58-.34a1.14,1.14,0,0,0-.17-.36s0-.07-.07-.11l-.12-.08.63-.43-.05-.11-.39.12v-1.16l-.12,0c-.17.15-.28.26-.31.28a7.53,7.53,0,0,1-1.61,1.47c-.12.08-.26.2-.42.34l-.38.39a2.62,2.62,0,0,0-.28.28c-.11.13-.2.23-.27.31l-.66.5-.2.2a1.23,1.23,0,0,1-.22.2L200.92,129l-.38.36a1.17,1.17,0,0,1-.44.28,4.37,4.37,0,0,0-1,.52c-.44.24-1.1.65-2,1.17-.48.28-1.22.69-2.21,1.2a1.37,1.37,0,0,1-.34.07,2.23,2.23,0,0,1-.36,0c-.13,0-.2.11-.2.3a.12.12,0,0,1-.08.05h-.12l-1.12-.3.15.3-.11,0a.39.39,0,0,0-.34-.2,1.78,1.78,0,0,0-.39-.05l-.51-.19a2.13,2.13,0,0,0-.5-.13c-.24,0-.63-.07-1.13-.11s-.9-.07-1.14-.09a1.13,1.13,0,0,1-.3-.12,1.45,1.45,0,0,0-.31-.15,3.25,3.25,0,0,0-.92-.07,1.68,1.68,0,0,1-.73-.13c-.39-.16-.62-.26-.69-.27l-2-.48a14.76,14.76,0,0,1-2-.66l-2.4-1-2.41-1a2.12,2.12,0,0,1-.39-.2c-.17-.07-.31-.13-.42-.16a3.47,3.47,0,0,1-1.44-.86,7.48,7.48,0,0,1-1-1.32c-.22-.4-.39-.69-.5-.89a2.06,2.06,0,0,0-.77-.73.63.63,0,0,1-.24-.26l-.24-.34-.36-.44c-.13-.16-.39-.52-.77-1.1a2.79,2.79,0,0,0-.26-.36.43.43,0,0,0-.46-.05.16.16,0,0,1-.13,0,.23.23,0,0,1-.11-.08c-.19-.26-.32-.44-.43-.58a1.56,1.56,0,0,1-.28-.59,1.16,1.16,0,0,0-.35-.63,4,4,0,0,1-.47-.52,3.51,3.51,0,0,0-.65-.66,3,3,0,0,1-.66-.69.89.89,0,0,0-.38-.36,3.39,3.39,0,0,0-.44-.17c-.35-.19-.54-.27-.54-.28a.88.88,0,0,1-.39-.38,6.9,6.9,0,0,1-.31-1c-.09-.44-.16-.77-.2-1-.16-.82-.27-1.43-.36-1.83a.93.93,0,0,0-.15-.27c-.07-.11-.11-.19-.09-.24a1.1,1.1,0,0,0-.12-.55.48.48,0,0,1,.08-.55s0,0,0,0c-.08-.35-.15-.62-.19-.81a1.37,1.37,0,0,1,.07-.82.4.4,0,0,0,0-.17l-.08-.46h.11l-.32-.39a1.36,1.36,0,0,0,.27-.78c0-.36,0-.63,0-.81,0-.38.09-.62.3-.7q0,.3.16.93c.07.35.11.65.13.89a5.13,5.13,0,0,1,0,.74,5,5,0,0,0,0,.73c.11.65.31,1.56.62,2.79.07.27.2.67.39,1.21l.17.46a2.7,2.7,0,0,1,.11.46.35.35,0,0,0,.13.28.9.9,0,0,0,.3,0,1,1,0,0,1-.16-.62,2.11,2.11,0,0,0-.07-.62.55.55,0,0,1,0-.28c0-.16,0-.27,0-.3a4.19,4.19,0,0,0-.15-.78l-.71-3a3.07,3.07,0,0,0-.05-.5c-.05-.42-.09-.71-.11-.93a8.59,8.59,0,0,0-.17-.92,1.56,1.56,0,0,0-.22-.44.8.8,0,0,1-.2-.43c0-.62.09-1,.39-1.22l.69.83.5-.43a2,2,0,0,0-.44-.9c-.13-.08-.36,0-.67.2a3.91,3.91,0,0,1-.11-.43v-.35a.64.64,0,0,0-.07-.32.81.81,0,0,1-.13-.62,1.48,1.48,0,0,0,0-.63l0,0,.12-.55c.31,0,.39-.16.22-.42l.27-.51.38-.46a3.7,3.7,0,0,0,.32-.44.78.78,0,0,0,.07-.23c0-.09,0-.16,0-.16-.27-.15-.28-.36,0-.67s.35-.36.61-.59l.65-.58a2.73,2.73,0,0,0,.23-.32,1.88,1.88,0,0,0-.73.23,1.12,1.12,0,0,1-.69.13c-.13,0-.2,0-.24-.11s-.07-.09-.09-.2a.28.28,0,0,0-.4-.07,1.77,1.77,0,0,1-.48.24l.69-1.88-.07,0-.2.17-.09-.08,1.52-1.88v.59l1,.15c.13-.15.19-.26.13-.31a.54.54,0,0,0-.23-.09,2,2,0,0,0,.5-.87,2,2,0,0,0-.05-1l-1.22,1.2c.34-.54.51-.83.52-.87s.27-.36.66-.94a.54.54,0,0,0,.54-.17,3.46,3.46,0,0,1,.43-.44c.16-.12.57-.46,1.21-1l-.08,1c.2.07.3.15.32.23a3,3,0,0,1-.16.78l.61-.17-.63.69.07.09a1.62,1.62,0,0,0,.35-.22,1.22,1.22,0,0,1,.48-.35,1.31,1.31,0,0,0,.94-.94,6.48,6.48,0,0,1,.3-.85c.07-.17.23-.54.47-1.08h-.24l.54-.46,0,0-.11.2c.22,0,.35-.05.4-.18a2.2,2.2,0,0,0,0-.44l.54-.19,0,.39q.18-.4.24-.57a.43.43,0,0,1,.46-.27c.09,0,.42,0,1,0l.2-.3-.36-.08.71-.28-.26.31.83-.12-.09.2,1.36-.67a3,3,0,0,1,1.51-.34,2.3,2.3,0,0,0,.78-.07,6.33,6.33,0,0,0,.78-.23,3.56,3.56,0,0,1,.92-.13,3.79,3.79,0,0,0,.93-.17,9.92,9.92,0,0,0,1.71-.81.7.7,0,0,0,.27-.35,3.2,3.2,0,0,1,.23-.44l.27-.35.24.32.05-.12.48.07.5,0a2.26,2.26,0,0,1,.5.08,4,4,0,0,0,1.24.15,5.93,5.93,0,0,0,.69-.19,1,1,0,0,1,.71,0l1,.61-1.59.63h1.06a.68.68,0,0,1-.46.58c-.16.07-.39.15-.7.24a3.08,3.08,0,0,1-.87.4.55.55,0,0,1-.47,0,3.4,3.4,0,0,0,.87-.35,1.57,1.57,0,0,0,.66-.73l-.26,0a.39.39,0,0,0-.23,0,4.23,4.23,0,0,1-.74.26.88.88,0,0,0-.61.48.67.67,0,0,0-.83.51h1.1v.11l-.71.2.16.13a.2.2,0,0,0,.11.07,4.3,4.3,0,0,0,1.79-.07l-.27.16a4.58,4.58,0,0,0,1.1.23.79.79,0,0,0,.48-.3l-.15-.07,2.56-.36-.07-.22,1.41-.16,0,.13-.65.3.71,0v.13l-.42.16c.11.07.17.08.2.07L195.5,87a3,3,0,0,1,.77,0q1.41.2,2.46.4c.54.09.83.16.9.18a2.91,2.91,0,0,1,.87.39,4.14,4.14,0,0,0,.92.44c.62.2.94.32,1,.34.89.38,1.55.67,2,.9.24.11.51.27.85.46l.83.48,2.85,1.72a4.93,4.93,0,0,0,.47.24l.86.43a.21.21,0,0,1,0,.09l-.23.19-.7-.38-.11.05.09.31a.85.85,0,0,1,.07.3,1,1,0,0,0,.3.52,3,3,0,0,1,.39.43,3.26,3.26,0,0,0,.66.73c.15.13.4.31.74.57.08.05.22.15.4.26a1,1,0,0,1,.3.31,3.15,3.15,0,0,0,.85.93c.22.19.54.44,1,.78l.4.32a2.29,2.29,0,0,1,.36.35l.42.4a.89.89,0,0,0,.42.08l-.11-.62.4.23a2.22,2.22,0,0,0,.35.15l2.07.44.18.66a2.25,2.25,0,0,1-.3.26.48.48,0,0,0-.17.24,1.93,1.93,0,0,0,0,.52c0,.12,0,.31.08.58l.54-.65.26,0a.23.23,0,0,0,.2,0c.22-.19.38-.27.47-.23s.2.22.27.52l-.4.23a4.42,4.42,0,0,0,1.44.15.61.61,0,0,0,.31-.11.33.33,0,0,0,.2-.22,1.07,1.07,0,0,1,.32-.62,4,4,0,0,0,.48-.48c.4-.44.71-.78.89-1a2.24,2.24,0,0,0,.51-1.27l.09-.08.52.24.58.36.57.32a1.09,1.09,0,0,0,.28.07H226c0-.27,0-.47,0-.61a.48.48,0,0,0-.12-.19l-1.08-1.33.51-.28.11.39.15,0,.35-1-.61.11,0-.12.75-.59-.89-.59c0-.19.08-.31.09-.39s0-.19,0-.2a1.25,1.25,0,0,1-.35-.48c-.15-.36-.24-.54-.24-.55l-.31-.5a1.4,1.4,0,0,1-.19-.57,2.26,2.26,0,0,0-.17-.67c-.13-.38-.22-.61-.23-.67a.38.38,0,0,1,0-.17.14.14,0,0,1,.05-.13,2.19,2.19,0,0,0,.71-1.1c.05-.16.12-.34.23-.58s.2-.47.23-.58c.13-.35.24-.62.32-.79a3.91,3.91,0,0,0,.2-.81,2.52,2.52,0,0,0-1.13-2.33l-1.2-.85c-.51-.36-.92-.63-1.17-.83s-.59-.46-1-.79l-1-.82L219,80.08c-.36-.24-.66-.42-.85-.54a2.5,2.5,0,0,1-.71-.69c-.51-.92-.9-1.59-1.16-2a6.15,6.15,0,0,1-.65-1.52c-.15-.71-.28-1.22-.36-1.59a11.69,11.69,0,0,0-.28-1.17,2.15,2.15,0,0,0-.59-1,1.69,1.69,0,0,0-.09-.16c-.57-1-.92-1.52-1-1.68a4.81,4.81,0,0,0-.73-.79c-.3-.27-.48-.43-.52-.48A1,1,0,0,1,211.77,67.73Zm-5.17-3.14-.26.32.51.12v-.28H207l.16.47-.09,0,.36.16a1.94,1.94,0,0,1-1.49-.39l-1.27-.9a2.15,2.15,0,0,1,.55,0,.61.61,0,0,1,.42.34.43.43,0,0,0,.42.27A1.93,1.93,0,0,0,206.6,64.59Zm1.06,1a1,1,0,0,1-.12-.34,1.38,1.38,0,0,1,.65.28.76.76,0,0,0,.75.05c.44,1,.69,1.52.74,1.63s.13.27.26.47a3.58,3.58,0,0,1,.26.47c0,.07,0,.16.08.31a1,1,0,0,0,.08.3c0,.07.11.2.22.36a2.79,2.79,0,0,1,.23.38,1.14,1.14,0,0,1,0,.54s-.11.05-.32.05h-.27a6.45,6.45,0,0,1-.61-.94,1.78,1.78,0,0,0-.87-.73l.3-.19-.08-.05a.41.41,0,0,1-.38,0,2.07,2.07,0,0,1-.23-.3l-1.28-1.75.07-.11,1.94.66q-.36-.77-.85-.65l-.15-.19a.33.33,0,0,0-.12-.09A1.39,1.39,0,0,1,207.67,65.6Zm-2.37,8.65a6.9,6.9,0,0,1,1,.43,2.16,2.16,0,0,1,.83.75,6.92,6.92,0,0,0,.74,1q.26.32.81.93c.71.87,1.22,1.52,1.53,1.91a.39.39,0,0,1,.11.38c0,.15,0,.24,0,.3s.19.07.38,0c-.24.15-.38.31-.39.43s.08.24.28.38l.12-.35.12,0,.36.77a.25.25,0,0,1,.05.13c.17.23.43.61.75,1.1a10.19,10.19,0,0,0,.83,1,32,32,0,0,0,2.71,2.46c.66.54,1.48,1.12,2.45,1.76a1.4,1.4,0,0,1,.43.42l.35.52-.34-.07-.32.4.58.23-.39.13v.09l.62.2.07.62-1.31-.81c-.15.19-.36.19-.63,0s-.61-.47-1.37-1l-.12-.08a2.24,2.24,0,0,0-1.36-1,.52.52,0,0,1-.19-.08.86.86,0,0,0-.16-.13l-.15-.12h0c0-.09,0-.16-.05-.19v-.28s0-.05-.09-.05h-.17l-.07-.36h-.28a.93.93,0,0,0,.13.52,1.22,1.22,0,0,0,.09.15h-.08a1,1,0,0,1-.32-.09,5.56,5.56,0,0,0-1.12-.5l-1.17-.38a1.15,1.15,0,0,0-.35-.07h-.39l-.09.13,1.09,1.14c-.7-.31-1.2-.55-1.48-.7a11.51,11.51,0,0,1-1.28-.75l.83-.82h-.16a.3.3,0,0,0-.12,0,.75.75,0,0,1-.59.12c-.16,0-.3-.22-.42-.5,0-.11-.15-.22-.31-.34s-.36-.23-.46-.31l.32,0c-.17-.23-.31-.4-.39-.52a5.2,5.2,0,0,0-.4-.52c-.39-.43-.59-.66-.62-.7a2,2,0,0,0-.79-.48.27.27,0,0,0-.15,0l-.27,0,.38-.22-.09-.47.12,0-.12-.13a.23.23,0,0,0-.13-.12.85.85,0,0,1-.47-.4.75.75,0,0,1,.09-.63c0-.05,0-.12-.09-.26a1.11,1.11,0,0,1-.16-.3,2,2,0,0,0-.71-1,7.73,7.73,0,0,0-1-.69,17.43,17.43,0,0,0-1.61-1,8.06,8.06,0,0,0-.9-.44s-.08-.07-.13-.13l-.12-.16a1.13,1.13,0,0,1,.35.08,1.89,1.89,0,0,1,.34.13.42.42,0,0,0,.38-.08c.26-.17.46-.23.58-.17s.26.23.34.52l-.26-.11c0,.07,0,.11,0,.11a1.85,1.85,0,0,1,.32.3l.2.22c.07.05.17,0,.3,0s.16,0,.38.13l.36.23-.05-.23.52.12a3,3,0,0,1,.51.15,1.16,1.16,0,0,1,.31.2,3.18,3.18,0,0,0,.3.22.44.44,0,0,1,.2.65s0,.08.07.15c.27.3.52.55.74.77a.8.8,0,0,0,.22.16c.12.11.19.16.17.18s-.05.28,0,.36a.6.6,0,0,0,.35.16c-.24.2-.28.39-.12.55a1.73,1.73,0,0,1,.34.4h.82l-.09.71-.19.07.27.22a1.45,1.45,0,0,0,.27.17s.08,0,.15,0l.24-.13-.35-.15.5-.19-.3-.26.05-.11.43.22.15-.51.11,0-.16-.28a3.26,3.26,0,0,1,.43-.35,1,1,0,0,1,.43-.05L210,80l0-.12-1.49-.92-.22.3a1.4,1.4,0,0,0-.2-.2.66.66,0,0,0-.2-.16.68.68,0,0,0-.2.07l-.27.16-.11-.69.26.19.08-.32h.67l.12-.17a1.92,1.92,0,0,0-.3-.22l-.28-.17a.63.63,0,0,0-.24,0,.27.27,0,0,0-.17.08.84.84,0,0,0-.12.27c0,.07-.05.16-.08.3-.24-.17-.38-.32-.39-.43s0-.22.2-.35a2.53,2.53,0,0,1-.31-.27c-.08-.12,0-.23.17-.36l-.39-.28-.24.44a3.87,3.87,0,0,0,0-.69.53.53,0,0,0-.42-.44l.3-.23ZM209.35,72a.35.35,0,0,1-.12-.23s.05-.24.12-.62a10.09,10.09,0,0,0,.75.83,2.41,2.41,0,0,0,1,.57,1.6,1.6,0,0,0,.32,1.37.56.56,0,0,1,.11.27,1.32,1.32,0,0,1,.07.34h-.35l.23.28-.58.24-.74-.59.58-.24.09.11.3-.23-.93-.69a.33.33,0,0,0-.31.27,1.25,1.25,0,0,0,0,.58l-.52-.42.05-.07-.54-.2,1.13-.46a5.8,5.8,0,0,0-.24-.55A2.78,2.78,0,0,0,209.35,72Zm-21.71,2.18-.92.05a1.4,1.4,0,0,1-.31,0l-.3-.07.07-.28.42.15.26,0,1.86-.09a.52.52,0,0,1,.23.09,2,2,0,0,1,.2.15l.36.24a.53.53,0,0,0,.47,0l-.15.11c-.05,0-.09.07-.12.05a8.3,8.3,0,0,1-.9-.36.83.83,0,0,0-.24-.07Zm3.46.08a1.27,1.27,0,0,0,.13-.35c.05-.27.09-.43.09-.46l2.44,1.1,0,.16-.38,0a.56.56,0,0,1-.34-.05.3.3,0,0,0-.35,0c-.15.09-.23.15-.28.15s-.05.19,0,.22a.48.48,0,0,0,.12.07c.05,0,.09,0,.11,0a.4.4,0,0,1,.4-.11,2.22,2.22,0,0,0,.47.11l-.59.17.2.24,0,.09-.74-.44a.85.85,0,0,1,.09.26c0,.08-.09.12-.26.13l-.48.08-.51.08a.72.72,0,0,1-.26-.07l-.27-.12.05-.15.48.09-.4-.35.61-.32a.81.81,0,0,1-.27-.24C191,74.57,191,74.46,191.1,74.31Zm3-1.67,0,.13-1.91-.54c.07-.07.23-.08.47,0s.28,0,.31-.2ZM199,71.42a.87.87,0,0,1-.24-.22s-.07-.11-.2-.28a2.3,2.3,0,0,1-.23-.44,6.18,6.18,0,0,1,.73-.26,1,1,0,0,1,.74.17,1.51,1.51,0,0,1,.28.3,2.27,2.27,0,0,0,.3.31,4.17,4.17,0,0,0,.58.38l-.27.62h.67l-.07.3-.87.44c0-.34-.07-.54-.07-.61a.3.3,0,0,0-.16-.19l-.59-.24A6.33,6.33,0,0,1,199,71.42ZM196.31,74a.94.94,0,0,1,.54.28,3.16,3.16,0,0,1-.75,0,.9.9,0,0,1-.32-.23A.77.77,0,0,1,196.31,74ZM202,72.55c-.05-.11-.11-.28-.2-.52a.71.71,0,0,1-.11-.2l-.09-.22c.94.42,1.52.67,1.72.79a1,1,0,0,1,.26.18c.08.11.05.23-.07.36s0,.08,0,.17a.59.59,0,0,1-.07.26l-.19-.34-.54-.32s-.07-.05-.12-.11C202.23,72.76,202.05,72.75,202,72.55Zm-.2,1.27.38-.12.07.12-.31.34v.13l1-.11a.53.53,0,0,1,0,.47,1.08,1.08,0,0,1-.34.43.36.36,0,0,1-.27.07,1.35,1.35,0,0,1-.32-.05,1.24,1.24,0,0,1-.31-.15l-.31-.19-.16.07c0-.2.07-.34.09-.44a1.18,1.18,0,0,1,.15-.39A.62.62,0,0,1,201.76,73.81Zm.16-.27-.63.22c0-.39-.2-.62-.69-.73a1.86,1.86,0,0,1,.79.13A1,1,0,0,1,201.92,73.54ZM203.8,73l.11,0a2.83,2.83,0,0,1,.51.19.55.55,0,0,1,.3.47l-1.06-.39V73Zm-3.36,7.5a3.06,3.06,0,0,0,.38-.09.48.48,0,0,1,.34,0,.9.9,0,0,1,.51.38,1.51,1.51,0,0,1,.07.7l0,.16.58,1.87-.81-.26q.28-.48.24-.61c0-.07-.2-.19-.52-.34a6.28,6.28,0,0,1-.65-.34c-.28-.16-.5-.27-.65-.34-.92-.43-1.63-.74-2.11-.93-.71-.26-1.8-.62-3.26-1.09a1.9,1.9,0,0,0-.32-.05.71.71,0,0,1-.3-.08.48.48,0,0,1-.16-.13,1.24,1.24,0,0,0-.15-.2,2.21,2.21,0,0,1,.23-.2.35.35,0,0,1,.23-.12,4.4,4.4,0,0,1,.65.05l.65.07h.32a6,6,0,0,0-1-.42,2,2,0,0,1-.89-.5l.78,0c.3,0,.55,0,.75,0s.11.07.19.16a2.23,2.23,0,0,0,.16.26s.11.16.24.42l.12-.05-.13-.3.08,0,.2.46a4.76,4.76,0,0,0,.23.46.92.92,0,0,0,.38.38.77.77,0,0,0,.61,0q.2-.08.69.2c-.19,0-.28.08-.3.08s-.16.16-.16.26a.28.28,0,0,0,.17.24.81.81,0,0,0,1-.26l.31-.36,1.06.36-.09.16Zm-1.57-2.65A.3.3,0,0,0,199,78l.2.09a1.71,1.71,0,0,1-1.09.07,7.71,7.71,0,0,1-1.63-.51l1.17-.17a1.65,1.65,0,0,0-1.09-.26,2.47,2.47,0,0,1-1.06-.13,3.9,3.9,0,0,0,.16-.51c0-.19-.05-.34-.27-.43a.49.49,0,0,0,.07-.17.25.25,0,0,0,.05-.15c0-.26,0-.39.05-.42s.18,0,.4.08c0,0,.2.08.52.22a1.57,1.57,0,0,0,.51.16.7.7,0,0,1,.5.23,2.21,2.21,0,0,1,.28.47,4.87,4.87,0,0,0,.47.69Zm4.4,4.19.58.55a.94.94,0,0,1,.34.71s.09.07.24.13a.67.67,0,0,1-.54.38,2,2,0,0,1-1-.28Zm-13.71-5a6.54,6.54,0,0,0,1.68.52,4.12,4.12,0,0,1,1.59.67v.16l-.66.07-.55.07a2,2,0,0,1-.54,0,.8.8,0,0,1-.31-.09c-.08,0-.2-.11-.39-.19-.38.22-1,.11-1.75-.31a1.42,1.42,0,0,1,.61-.35A.49.49,0,0,0,189.55,77Zm.54,3.08a3.1,3.1,0,0,1,1.1,1l-.61.36.47.19v.11l-.93,0,.35-.23-2.18-1,.44-.85A4.27,4.27,0,0,1,190.09,80.07Zm1.37,1.06,2.18.42,0,.26-2.36-.15Zm-5.18.16a1.87,1.87,0,0,0,.31.19.55.55,0,0,1,.16.18c0,.28-.17.38-.57.3Zm25-5.79a.44.44,0,0,1,.26-.31c.11,0,.19,0,.27.11a7.79,7.79,0,0,1,.77,1.32.6.6,0,0,1,0,.3c0,.07,0,.19,0,.36-.24-.28-.4-.48-.51-.62a4.91,4.91,0,0,1-.43-.55.41.41,0,0,1,0-.27,3.21,3.21,0,0,0,0-.36Zm0,1.2a1.68,1.68,0,0,1,.47.36c.05.07.13.17.22.3a.34.34,0,0,0,.35.07s.05,0,.11.12l.09.23a2.15,2.15,0,0,0,.27.54.69.69,0,0,1-.07.65L210,76.38l0-.11.35,0a1.55,1.55,0,0,1,.32.09C211,76.54,211.18,76.65,211.27,76.71Zm-5.57,7.63.24-.94.09-.05.3.9Zm.65.07a.54.54,0,0,1,.71.17c.22.36.34.55.34.57Zm.87,3.67s.09,0,.26.09l-.22.32.34.42a2.19,2.19,0,0,1-.78-.16,1.3,1.3,0,0,1-.63-.61l.47,0a1.08,1.08,0,0,0,.27.07A.26.26,0,0,0,207.22,88.08Zm.48.12v-.15l.52,0,.17.63.22-.42.55.86a.7.7,0,0,1,.74,0,.76.76,0,0,1,.42.58.91.91,0,0,0,.08.4,1.49,1.49,0,0,0,.42.31l-.09-.27.17-.07h.2l-.12.39h.74l-.22.67-.74.17.22.36-.15,0-.07-.07a.09.09,0,0,0-.05-.07.87.87,0,0,1-.31-.36,1.19,1.19,0,0,0-.34-.38,1.23,1.23,0,0,1-.4-.36c-.16-.2-.27-.35-.36-.44l-.27-.16-1.43-1h0ZM212,90.35l-.08.08-.61-.23-.08-.58Zm.26.87c0-.07-.08-.15-.15-.24l-.17-.24a1.37,1.37,0,0,1,.78.19,2.58,2.58,0,0,1,.62.47c.24.22.62.55,1.13,1a3.81,3.81,0,0,1,.93,1.29l-.5-.39.2.51s-.16-.11-.39-.26a.43.43,0,0,0-.47,0s0,0-.07,0a9.75,9.75,0,0,0-1-1A2.8,2.8,0,0,1,212.3,91.23Zm3.49,2.93-.3-.3a2.27,2.27,0,0,1,1.16.69.87.87,0,0,1,.24.89,1.13,1.13,0,0,1-.92-1A1.47,1.47,0,0,0,215.78,94.16Zm2.15-.83.16-.5,1.17.83,0,.11Zm1.49,2.33-.52-.55a.68.68,0,0,1,.39,0c.05,0,.12.15.22.36l.2-.34a.78.78,0,0,0,.07.17.22.22,0,0,1,0,.13.49.49,0,0,1-.15.13Zm1.17,2.61a4.05,4.05,0,0,1-.39-.43l.36-.47.55,1.08-.05.09A3.53,3.53,0,0,1,220.6,98.27Zm-4.31-.61c-.08-.13,0-.27.12-.39l-.4-.65,1,.35.9,1.22-.07,0-.3-.23-.07,0,.15.22a4.78,4.78,0,0,1-.63,0,.72.72,0,0,1-.48-.34A1.06,1.06,0,0,1,216.29,97.66Zm5.91-.89,1.22-.71.26,1.24Zm-27.4,44-.16-.27.11,0a.53.53,0,0,0,.75,0,1.34,1.34,0,0,1,1-.27,1.62,1.62,0,0,0,.31,0l.36-.08.19-.42-.77.19,1.8-1.47,1.21,0a2.38,2.38,0,0,0,1.28-.36c0,.42-.23.54-.63.35q0,.24.12.28a1.59,1.59,0,0,0,.47.12l.66.08a.52.52,0,0,1-.11.31c0,.11.05.15.26.13a2.81,2.81,0,0,1-.46.74q-.1.08-.4-.16l0,.5-.38-.28.5-.66-.46-.11.19-.32-.65.12a1.73,1.73,0,0,0,.16.27c0,.11-.07.17-.27.2,0,0-.07,0-.11.12l-.36.62a.51.51,0,0,1-.11.65,1.37,1.37,0,0,1-.87.46l.3-.52a1.2,1.2,0,0,1-.58.47c-.15.07-.38.15-.69.26a2.74,2.74,0,0,1-.87.19c-.4,0-.65,0-.74-.12l.46-.44-.66-.2.11.39s0,0-.13.08-.08.11,0,.2l-.86.28.05-.48h-.31l.23-.27,0-.09-1.21.17,0,.47.79-.27.23.62-3.47-.46v-.12a3.33,3.33,0,0,0,1.44-.3,9.33,9.33,0,0,0,1.28-.73l.24.42-.46-.12-.05.11c.13.11.22.16.27.15Zm6.55-3,.44,0a1.1,1.1,0,0,1-.9.32l.42-.58.11.07Zm.23,1.12,0-.15,1.16-.13-.34.39a1.06,1.06,0,0,1-.32.27c-.05,0-.12,0-.23-.11Zm-16.5-4.71a1.13,1.13,0,0,0,.31.16,5.44,5.44,0,0,0,1,.13l-.2.34.09.08c-.16.05-.4.16-.73.31a3.08,3.08,0,0,1-.75.23.59.59,0,0,1-.39-.08,4.7,4.7,0,0,0-.42-.24l-1.87-.9a.51.51,0,0,1-.11-.12l-.12-.13-.31-.28.11.3s-.05,0-.07,0a.69.69,0,0,1-.23-.13.81.81,0,0,0-.46-.4,5.68,5.68,0,0,0-.59-.2l-1.29-.62a1.82,1.82,0,0,0-.43-.13l-.4-.13c-.36-.16-.87-.43-1.57-.82l-.82-.34-2.49-1c-.23-.09-.83-.28-1.83-.57a.7.7,0,0,1-.55-.69.39.39,0,0,0-.07-.13l-.09-.08,1.08.61a1.32,1.32,0,0,0,1.14.09.77.77,0,0,1,.47.05l.47.23,1.52.81a7.76,7.76,0,0,1,1.06.73,1.86,1.86,0,0,0,.77.3c.42,0,.71.09.93.12a.48.48,0,0,0,.3.28,1.57,1.57,0,0,0,.47.13l.39.11a2.2,2.2,0,0,0,.38.13.79.79,0,0,0,.38.07,2.58,2.58,0,0,1,.63-.08.84.84,0,0,1,.61.27,1.46,1.46,0,0,0,.51.34,4.6,4.6,0,0,1,.61.24l-.4.31a3.34,3.34,0,0,0,.47.23c.17,0,.34,0,.46-.27l.47.54,1.28.11A1.18,1.18,0,0,1,185.08,134.19Zm2.14-.17-.5-.12a2.17,2.17,0,0,1,.61,0,.62.62,0,0,1,.36.39,2,2,0,0,1,.67-.2,1,1,0,0,1,.69.17l-.54.26a1.93,1.93,0,0,1-.62.12,1.3,1.3,0,0,1-.65-.17,2.73,2.73,0,0,0-.73-.17l-.78-.09a4.31,4.31,0,0,1,.65-.34.63.63,0,0,1,.38.07l-.42.13v.05h.86ZM184,139c-.22.24-.42.32-.59.23A2.47,2.47,0,0,1,183,139Zm23-7.35-.36.63a2.61,2.61,0,0,1-.61.74,1.18,1.18,0,0,1-1,.11l.42-.13q.18-.1,0-.4l.65-.2a.21.21,0,0,0,0-.11c0-.07,0-.11,0-.12l.73-.62ZM164.67,70.92l0-.16-.82.17-.12-.27s0,0,0,0a1.7,1.7,0,0,0,.51-.08.9.9,0,0,0,.4-.32c.15-.17.3-.15.5.11l-.46.81h-.52Zm1.43.66a.81.81,0,0,0,.17-.11c.3.22.31.42,0,.61l-1,.61c-.15-.2-.28-.32-.38-.34a.64.64,0,0,0-.42.2.5.5,0,0,1-.28.09l-.26,0-.08-.52a.66.66,0,0,0,.17,0c.08,0,.12,0,.13-.05a.5.5,0,0,1,.47-.24l.46.16a.79.79,0,0,0,.48,0,.48.48,0,0,0,.32-.31A.35.35,0,0,1,166.09,71.58Zm1.31.23a3.82,3.82,0,0,1,.42.35l1,.52h-1l-.08.43-2-.2c.74-.67,1.17-1,1.32-1.17s.11,0,.22,0A.39.39,0,0,1,167.4,71.81Zm-8.22-1.56-.35.08-.83.05v-.16l1.17-.09Zm-1.47,6.22a2.75,2.75,0,0,0,.48-.12l.07.32.24-.43q.06.26-.52.77a6.41,6.41,0,0,1-1.39.87h.66l.05.11-1.1.71v.07l.39-.07a1.22,1.22,0,0,1,0,.16.57.57,0,0,0-.46.23,3,3,0,0,0-.34.39,5.78,5.78,0,0,1-.57.51l-.61.51-.5-.63s-.15.2-.4.51a6.06,6.06,0,0,1-.39.47c-.16.19-.43.47-.79.83a4.16,4.16,0,0,0-.66.94s0,0-.08.07-.08,0-.12,0-.05,0-.08-.07a.12.12,0,0,1-.05-.09,1.11,1.11,0,0,1,0-.36l1.09-1-.07-.09-.34.09-.05-.12.81-.38-.24-.17.27-.16.59-.67c.08-.11.12-.16.15-.16.24.08.38.05.38-.11s0-.34,0-.35l.61-.58.05.07-.12.42.83.12,0-.15-.3-.23a2.42,2.42,0,0,1,.77-.89,1.2,1.2,0,0,1,.93-.3l-.11-.08c.11-.19.17-.35.23-.44a1,1,0,0,1,.28-.39A.92.92,0,0,1,157.71,76.46Zm3,4.55a3.57,3.57,0,0,1-1.14.4L160,81c-.16-.15-.2-.28-.13-.42s.17-.22.22-.27l1.37-.27A1.66,1.66,0,0,1,160.68,81ZM155,83l.82-.61.17.39a1.31,1.31,0,0,1-.35.65c-.13.09-.31.07-.5-.08l.39-.43Zm.16,3.4c.47-.55.5-1,.07-1.2a1.33,1.33,0,0,0,.39-.61,1,1,0,0,1,.51-.59l.07.63v.69a.77.77,0,0,1,0,.17c0,.05,0,.09-.05.09s-.3.22-.42.59a.45.45,0,0,1-.59.36,1.65,1.65,0,0,1-.34-.15l.05-.13Zm-4.79-2-.23.51a4.68,4.68,0,0,1-.26.47,2,2,0,0,1-.48.57.3.3,0,0,1-.13,0l-.2,0-.12.32.35.08-.32.81-.16-.47-.28.36q0,.26.2.2c.16,0,.26,0,.26.07l-.85.35a1.13,1.13,0,0,1-.09-.31A1.7,1.7,0,0,1,148,87s.07-.07.19-.12l.31-.09c-.2-.35-.12-.57.24-.62a.44.44,0,0,0,.17,0c.39-.73.7-1.25.93-1.59a1.23,1.23,0,0,1,.3-.32,3.69,3.69,0,0,0,.35-.27l.13.13Zm-2.88,3.07.22,0,.17.52.71-.13.16.31.44-.63.09,0-.23.59-1.21.28a.36.36,0,0,0-.27.5c.07.31,0,.5-.07.58l.46,0a1.07,1.07,0,0,0-.2.23l-.43.24.43.34c-.2.51-.34.82-.39.92a.94.94,0,0,1-.92.38l.16-.22-.4.07c-.12-.09-.05-.44.23-1s.51-.93.71-1l-.3-.32.47-.19Zm2.6,2.44.15.08-.65,1.29-.16-.11Zm-1.33-1.2-.63.52-.11-.12a1.39,1.39,0,0,1,.2-.4.42.42,0,0,1,.4-.16Zm-2.83.51c.13.22.19.36.13.46a2.41,2.41,0,0,1-.65.58Zm.36,3.8-.62,1.1a3.09,3.09,0,0,1-.38.43l.58-2.5.16,0c.32.13.48.26.51.32S146.51,92.68,146.32,93Zm2.1.85.3.42-.34.73.15.09.23-.4.24.46-.58.55-.08-.09.31-.32-.09-.11-.26.2a1.8,1.8,0,0,0-.23.23,1.16,1.16,0,0,0-.16.3l-.16.31-.12-.07Zm-3.75,6a1.08,1.08,0,0,0,.23-.28c.09-.13.16-.26.2-.32l.09,0-.08,1.71H145c-.08,0-.11,0-.13,0a1.52,1.52,0,0,1-.17-.3,1.12,1.12,0,0,0-.19-.28c-.13-.15-.17-.26-.09-.32A1.63,1.63,0,0,0,144.67,99.89Zm-1.22-.51s0,0,.09-.07.13,0,.15-.07l.11,1-.13,0A8.43,8.43,0,0,1,143.44,99.38Zm5.07-2.77a1.32,1.32,0,0,0,.27-.32c.34.08.52.16.58.24s0,.23-.17.46L149,96.7l-.7.35.12.11-.28.36a.72.72,0,0,0-.08.22c0,.07-.11.07-.24,0a.2.2,0,0,0-.11,0l-.13.09h-.34l.74-.63-.52-.52,1-.73.08.08-.32.4C148.38,96.58,148.48,96.62,148.52,96.61Zm.27,1.06.13.12-.16.67-.71-.18s-.07.11-.13.36l.32-.24c.12.16.17.3.13.4s-.17.22-.4.3l.59.35-.69.34s0,.08.08.23a1.53,1.53,0,0,1-.11.19.32.32,0,0,0-.07.17s0,.07.11.12l.12.07-.74,2.23h-.13a1.18,1.18,0,0,0-.05-.44.35.35,0,0,0-.38-.17s0-.05-.05-.13a1.7,1.7,0,0,1,0-.23,7.77,7.77,0,0,1,0-.92l.17-.71H147l-.2,1.59.07,0,.24-.52.09,0-.16.83.13,0,.77-3.55L147,99.89a1.19,1.19,0,0,1-.09.16s0,0-.07,0a.09.09,0,0,1-.07-.05c-.09-.11-.11-.3,0-.58s.17-.44.3-.47a.15.15,0,0,1,.11,0s0,0,0,0l.12-.81.36.11Zm1.48.52.11,0,.07.13h.12v-.74l.42-1,.12.2a.25.25,0,0,1,0,.17c-.12.39-.27.85-.47,1.35,0,0-.05.07-.11.09s-.09.07-.12,0-.07,0-.09-.09A.86.86,0,0,0,150.27,98.2Zm-.46,2.48c0,.08-.11.22-.22.39a1.41,1.41,0,0,0-.16.39,2.26,2.26,0,0,0,.05.46,4.17,4.17,0,0,1,.11.46s0,.05,0,.08a.52.52,0,0,1-.07.11c-.12.42-.18.63-.19.7l-.67,3.16-.78-.24.31-.27q-.46-.12-.08-.65v.35h.08c0-.13.05-.22,0-.27a1.09,1.09,0,0,1-.12-.39c0-.13.07-.24.26-.32,0,0,0,0,0-.11s0-.12,0-.12a.3.3,0,0,0-.12,0H148l0-.44a.56.56,0,0,0,.42-.26,1.92,1.92,0,0,0,.16-.48,14.35,14.35,0,0,1,.52-1.64c.18-.36.28-.63.36-.82l.63-1.83a1,1,0,0,1-.19,1.44s0,.08,0,.16,0,.12,0,.22Zm11.13-11.39.19-.71a1.75,1.75,0,0,0,.36-.05c.13,0,.13-.17,0-.39l1-.94,1.25-.87-3,4.15.3.16c-.08.11-.12.15-.13.15-.2-.11-.36-.09-.46.05s-.15.22-.27.39-.07.09-.13.16a.61.61,0,0,1-.13.19c.13-.42.22-.73.28-.92a1.29,1.29,0,0,1,.52-.73l-.09-.82Zm-1,1.25-.11,0,.2-.74.5,0Zm-2.14-2-.87,1.32-.12-.08A1,1,0,0,1,157,89a6.81,6.81,0,0,0,.63-.54Zm-5.14,5.18.44.74.3-.44.11,0-.08,1.44a.55.55,0,0,1-.43-.22.88.88,0,0,1-.07-.57l-1.14.31Zm1.7.09-.43-.31.66-.5.28.31.52-.24a7.36,7.36,0,0,0-.32.71l-.28.71-.16.28a.47.47,0,0,0-.15-.09,1,1,0,0,1-.12-.13,1,1,0,0,1-.17-.35A.41.41,0,0,1,154.36,93.86Zm-1,2.15a3.41,3.41,0,0,1,.07.71,1.06,1.06,0,0,1-.35.67l-.36-.13.12-.61-.12-.05-.67.93.23-2.23.16,0-.13,1.13.47-.11c.17,0,.24-.19.22-.43Zm-.7,5.07a3.82,3.82,0,0,1,.19-.79c0-.09.13-.2.34-.31l-.13.65c0,.26-.07.47-.09.65s0,.48-.07.87-.05.67-.07.86a1.08,1.08,0,0,1-.11.28,2.87,2.87,0,0,0-.17.3l.34.46c-.23.12-.36.17-.4.15a1.21,1.21,0,0,1-.2-.48.68.68,0,0,0-.09-.2,1.1,1.1,0,0,1-.11-.16c-.23.16-.32.3-.32.36s.08.22.3.43.16.19.26.32.2.28.26.36a1.25,1.25,0,0,1-.24.17c-.05.09,0,.19.28.3l-.22.07V106l-.38-.12.11.87.28-.74.3-.05c0,.32.12.83.23,1.49a3.74,3.74,0,0,1-.12,1.57l.35.22-.39.24a7.23,7.23,0,0,1,.63,1.08,3,3,0,0,1,.27,1.25c-.38,0-.52.12-.43.46,0,0-.07,0-.19.08a1.73,1.73,0,0,1-.35.09s-.07,0-.11,0l-.13-.12.13-.39c.28.07.46.08.51,0s.05-.23,0-.52a.63.63,0,0,1,0-.22.76.76,0,0,0,.08-.27l-1.06-.52a.85.85,0,0,1-.09.39c0,.13.07.2.28.23a1.64,1.64,0,0,0-.09.82,1.28,1.28,0,0,0,.28.77l-.35.09c.08.26.31.38.7.39a.83.83,0,0,1,.77.35l-.86-.12,0,.43h-.11L153,115l.55-.34v-.47l.13,0s.07.12.19.32a.3.3,0,0,1-.08.38l.62.67a.79.79,0,0,0-.34.63,1.23,1.23,0,0,1-.13.67h-.43l-.24,2.21c-.47-1.37-.74-2.17-.82-2.42a9.4,9.4,0,0,1-.39-2.5q.28,0,.36-.16a.37.37,0,0,0-.09-.36l-.15-.34a.36.36,0,0,0-.34-.2s-.07-.05-.12-.15-.05-.19-.07-.27v-1.08l.22-.07-.09-.05a.11.11,0,0,1-.07-.07l-.12-.23a.26.26,0,0,1,0-.22,1.23,1.23,0,0,0,.07-.66c0-.35-.05-.58-.05-.66a4.1,4.1,0,0,1,0-.46.45.45,0,0,1,.35-.32.61.61,0,0,1-.24-.67,1.26,1.26,0,0,0,0-.73l.23.07a2.73,2.73,0,0,1-.07-.31c0-.12.08-.16.3-.13v-.36l0,0-.52.43c-.15-.44-.26-.75-.3-.93s0-.07.08-.11l.19-.13-.3-.3.07-.08.31.11c0-.18,0-.27-.05-.27-.23-.07-.35-.19-.35-.39a1.75,1.75,0,0,0,.09-.47,6.07,6.07,0,0,1,.17-.78,7.43,7.43,0,0,0,.24-.79c.07-.22.09-.38.13-.48a4,4,0,0,1,.19-.46,1.23,1.23,0,0,1,.27-.31,2.21,2.21,0,0,0,.28-.31.3.3,0,0,0,0-.17A.49.49,0,0,1,152.68,101.09Zm7-5.81a1.65,1.65,0,0,1-.27.78,1.1,1.1,0,0,0-.19.81s-.05.07-.17.13l-.42.23a3.6,3.6,0,0,0,0-.48,1.27,1.27,0,0,0-.09-.39.57.57,0,0,0-.19-.23l-.23-.17a.72.72,0,0,0,.43-.13.37.37,0,0,0,0-.34l.3-.12a2.57,2.57,0,0,1,.62-.35c.09,0,.16,0,.17,0A.45.45,0,0,1,159.7,95.28ZM161,97.16a2.7,2.7,0,0,1-.32.09l.36-1.12.59,0c0,.09-.11.26-.2.46a3.21,3.21,0,0,1-.22.43A.62.62,0,0,1,161,97.16Zm14.14-13a2,2,0,0,1,.58.69c0,.13-.07.24-.3.32l.13.39.77-.27c0,.16-.11.36-.44.62a3,3,0,0,1-1.1.5c.11-.16.2-.27.24-.35a.76.76,0,0,0,.16-.31.51.51,0,0,0-.05-.26c-.09-.19-.15-.28-.15-.3l.28-.12-.05-.16-.52.2a1.58,1.58,0,0,0-.46.24,9.61,9.61,0,0,1-2.33,1.44,5,5,0,0,0-.44.3,4.09,4.09,0,0,1-.44.31c-.27.16-.66.36-1.18.65a2.49,2.49,0,0,0-.32.23,4.16,4.16,0,0,1-.35.3.57.57,0,0,0-.55.23.69.69,0,0,0-.15.69l-.4.22.79.31h-.7l.2.62-.7.38.23-.86-.73.35.36.15-.32.13.24,0-.57.54.11-.57h-.52l1-1.18.12.07-.19-.34.12-.08a3.53,3.53,0,0,0,.42-.26l.7-.7c-.07-.17.08-.43.47-.74a2.2,2.2,0,0,1,1.2-.55l-.46-.3.77-.24a1.1,1.1,0,0,1,.2-.77c.16-.3.34-.46.54-.47l-.11.24,1.57-1a3.23,3.23,0,0,1-.61,0,.77.77,0,0,0-.52.32s-.07.05-.17,0a1.1,1.1,0,0,0-.24,0l.15-.58.27.17-.09-.47.48.13.17-.13a.37.37,0,0,1,.2-.11.54.54,0,0,1,.2,0,.25.25,0,0,1,.16.09c.07.2.17.3.31.3a1,1,0,0,0,.43-.12,1.52,1.52,0,0,1,.62-.15.76.76,0,0,1,.54.28Zm-2.23-.2,0-.13.26-.27v.12l.77.05v.15Zm.19,3.61c-.13,0-.32.09-.54.32s-.4.27-.58.18l-.51.4-.09-.08c.24-.46.42-.74.5-.86s0,0,.11,0h.62v-.08ZM167.82,76c.4,0,.67,0,.81.23l-1,.67c0-.15-.08-.24-.15-.27s-.08,0-.12.09,0,.16-.05.43c-.13-.31-.22-.5-.23-.55a.3.3,0,0,1,0-.22A.82.82,0,0,1,167.82,76ZM163,80.49c0,.26-.09.39-.26.4a1.93,1.93,0,0,1-.47-.05.39.39,0,0,1,.31-.32A2.74,2.74,0,0,0,163,80.49Zm2.77,4.23a3,3,0,0,1,.7-.61c.4-.3.67-.48.77-.58a3.31,3.31,0,0,1,.89-.4c.46-.13.74-.18.86-.09l-.71.55c.16.38,0,.62-.38.75l-.08,0a3.7,3.7,0,0,1-.67.52,1.52,1.52,0,0,1-.86.22l.55,1-.9.51-.05-.05.42-.59-.07-.11-1.29.65c.16-.4.28-.71.38-.92A3.86,3.86,0,0,1,165.73,84.71Zm-1.09,3.16c.19-.32.32-.55.42-.69a.9.9,0,0,1,.61-.42l.44.48Zm4.21-3.14a1.44,1.44,0,0,0,.42.17l-.31.23.5.31a.5.5,0,0,0-.22.12l-.17.07c-.08,0-.39,0-.87,0a2.67,2.67,0,0,1,.2-.3.92.92,0,0,0,.15-.31C168.6,84.81,168.69,84.7,168.85,84.74Zm-.47,1.86a.35.35,0,0,1,0-.2.36.36,0,0,1,.23-.07l.3,0,.09-.2c0,.08,0,.2.09.34s-.11.15-.3.11a.25.25,0,0,1-.19.24,1.4,1.4,0,0,0-.27.07Zm-.85-.67-.52.44c-.08-.15-.12-.22-.11-.22a3.69,3.69,0,0,1,.51-.39Zm-.05.78.09.15h.77l-1.08,1.39-.17-.15.87-.94-.09-.12-1,.78Zm3.59,1.87,0,0-1,.71.15-.55Zm-4.21.22-.55.7-.26-.47.62-.22S166.74,88.79,166.86,88.79Zm-2.65,1.41.23.05.09.85.69-.38-.16.73-.62.43-1-.27Zm-2.26,5.53-.43-.19a.53.53,0,0,1,.35-.51l.75-.13Zm3.34,2.87a1.47,1.47,0,0,0-.54.11c-.23,0-.36-.12-.43-.44l1,.2Zm-2.66,12.06a4.89,4.89,0,0,1,.18.54,1.73,1.73,0,0,1-.13.82v-.28l-.3.34.4.08a.83.83,0,0,1-.08.32.28.28,0,0,1-.3.12.28.28,0,0,0-.2.08l-.12.11.4.42a1.11,1.11,0,0,1,.28.4.51.51,0,0,1,0,.44.71.71,0,0,1-.36.35s0,0,0,.09c-.09-.12-.23-.3-.39-.54s-.28-.4-.38-.55a4.06,4.06,0,0,1-.31-.93c0-.05,0-.11,0-.19a.86.86,0,0,0,.08-.22l-.19-.71-.09-.07-.07.24-.19-.42h-.05v.52h-.12a1.37,1.37,0,0,1,0-1s.16-.34.43-.93l.12.42L162,110a.66.66,0,0,1-.11.38.61.61,0,0,1-.52.12l.43.46.62-.83C162.43,110.26,162.53,110.43,162.62,110.66Zm-.69,4.19q.3.16.48-.32c.18-.13.35-.07.52.17a1,1,0,0,1,.13.59,1,1,0,0,1-.42.67,1.1,1.1,0,0,0-.4.65,1.43,1.43,0,0,1-.09.36.52.52,0,0,1-.23.39.48.48,0,0,1-.44.05.33.33,0,0,1-.07-.09c0-.12-.07-.17-.07-.19a.31.31,0,0,0-.24.32c0,.09,0,.23,0,.42s0,.13.05.26a1.26,1.26,0,0,1,.08.26c0,.15,0,.24.09.3a.24.24,0,0,0,.26-.05.42.42,0,0,1,.43,0,1.52,1.52,0,0,1,.31.24,3,3,0,0,1,.39.51c0,.05,0,.13-.12.26a.76.76,0,0,1-.35.23h-.19l.13-.32-.11,0-.24.46a3.17,3.17,0,0,1,.35.09.24.24,0,0,1,.08.11.46.46,0,0,1,.07.15l.13-.17.24.77-.19.11c-.12-.22-.2-.32-.27-.34s-.19.07-.38.24t-.16,0a.32.32,0,0,1-.09-.12c-.19-.74-.34-1.32-.44-1.68a.42.42,0,0,0-.11-.13l-.12-.15c0-.05-.07-.19-.13-.4a1.38,1.38,0,0,1,0-.15,2,2,0,0,1-.23-2,1.1,1.1,0,0,0,0-.5.67.67,0,0,1,0-.43.71.71,0,0,1,.39-.16l-.12.3.15.07.42-1C161.65,114.7,161.81,114.79,161.94,114.85Zm1.24,6.45-.15.08.27.38s0,0,0,0a.16.16,0,0,1,0,.11l-.54-.13,0-.54.77.09v.12l-.31.16Zm1.16,1.28.43.23-.3.09a2.83,2.83,0,0,0,.59.87c.11,0,.34-.07.7-.32a.34.34,0,0,1-.22.4c-.23.12-.35.2-.36.28a3,3,0,0,1,1,1,7.77,7.77,0,0,0,.92,1.18h-.59l0,.48a3.62,3.62,0,0,0-.61-.81,1.73,1.73,0,0,1-.51-.81c0-.07-.08-.13-.2-.22a2.28,2.28,0,0,1-.28-.2l-.08.08.38.54-.39.05.54.85.55-.15,0,.13-.28.12a.76.76,0,0,1,.12.16c0,.05.07.08.09.08q.3-.06.4,0c.08.07.07.2,0,.4.12.11.19.13.2.12a3,3,0,0,0,.28-.34l.34.36h-.32a.23.23,0,0,0,0,.11.13.13,0,0,0,0,.09s.05,0,.11,0,.07,0,.08,0,.16-.16.23-.13a.73.73,0,0,1,.19.19l.66.62.11.16s0,.11.08.17-.11.05-.2.12a.3.3,0,0,1-.18.05,1.68,1.68,0,0,0-.75-.15c-.11,0-.35,0-.74.09a1,1,0,0,1-.39-.07l-1.32-.34a2.89,2.89,0,0,1-.44-.27c-.16.19-.31.23-.46.15a2,2,0,0,1-.34-.35l-1.27-1.37a.51.51,0,0,1-.55-.51.35.35,0,0,0-.12-.19l-.17-.17A4.48,4.48,0,0,1,161,125a1,1,0,0,0-.42-.54,1.3,1.3,0,0,0-.77,0,2.74,2.74,0,0,0,.2.23c.07.16.09.24.05.3a.77.77,0,0,1-.35.27,1.09,1.09,0,0,1-.23,0h-.24l.2.57h.08l0-.35.24.36.09,0,0-.46.4.63.13-.07-.22-.42.26-.15.32.93-.82-.05v.67l-.34,0a1.1,1.1,0,0,1-.75-.31,5,5,0,0,0-.63-.47,3.9,3.9,0,0,1-.85-.65,4.46,4.46,0,0,0-.82-.62s-.05-.05-.09-.12a.61.61,0,0,0-.07-.13l-.09-.23c-.05-.07-.22-.26-.51-.58s-.36-.43-.48-.59l-.47-.73a3.76,3.76,0,0,1-.34-.79,1,1,0,0,1,.09-.55,3.86,3.86,0,0,1,.27-.59,1.3,1.3,0,0,1,.24-.31,3.34,3.34,0,0,0,.3-.28l.27-.35.28.44-.2.09c0,.13,0,.34,0,.58s0,.4,0,.55.11.35.36.62.43.4.57.36a.55.55,0,0,0,.19-.13l.23-.22-.59-.13.15-.43a9.22,9.22,0,0,1,1.67,2l-.09.08-1-1-.13.13,1,1.28-.05.07-.66-.39,0,.24h-.09l-.24-1.08-.86.34a.71.71,0,0,1,.16.2,2,2,0,0,0,.36.46.76.76,0,0,1,.24.52c0,.11.16.2.51.24a1.31,1.31,0,0,0,.75,0l.34-.2.42.78.12,0-.19-1.16-.42-.09v-.07l1.08-.11c0,.09-.12.24-.23.44s.05.34.31.43l.58-.35-.4-.52c.16-.35.36-.34.62,0l.05-.35.43.65c-.24-.51-.39-.79-.42-.83a1.07,1.07,0,0,0-.82-.47c.08-.27.2-.42.36-.46a.76.76,0,0,1,.58.26l.43.35.12-.63a.3.3,0,0,1,.12.24c0,.09-.12.35-.31.79l.4.36h0q.12-.48.24-.48a3.09,3.09,0,0,1,.78.59l.09-.7a.61.61,0,0,0,.44-.07,1.4,1.4,0,0,0,.26-.39.43.43,0,0,1,.23-.2.73.73,0,0,1,.32-.12c.16,0,.26.11.28.39C164.1,122.42,164.17,122.49,164.33,122.57Zm2.25,2.09.08-.07,1.25.81,0,.09-.42-.07.42.9c-.08,0-.13.05-.19,0s-.11-.16-.26-.39l-.5.11,0-.09.47-.26Zm2,1.52.08,0-.09-.44.11-.07,1.2,1.52h-.15a.8.8,0,0,1-.17-.07,1.51,1.51,0,0,0-.55-.39,1.63,1.63,0,0,0-.74.11ZM169,128a2,2,0,0,1-.19-.28c-.09-.16-.16-.28-.22-.39a2.53,2.53,0,0,1,.42-.07c.13,0,.23.11.27.31,0,0,0,.05.11.09a.87.87,0,0,0,.17.12c.08.05.12.08.12.09-.11.24-.2.38-.27.39A.56.56,0,0,1,169,128Zm.86-.81.42,0v.09l-.31.11c.59.23.93.36,1,.42a3.28,3.28,0,0,1,.85.69l-.62-.2a3.75,3.75,0,0,0-.39-.07c-.17,0-.26-.09-.26-.16,0-.23,0-.38-.16-.42a.86.86,0,0,0-.47,0ZM154.3,105.82l.36.4-.42.73Zm6.27,8.4a3.81,3.81,0,0,1,0-1l.48-.11-.39.62.5.51-.26.83A2,2,0,0,1,160.58,114.21Zm-12.73-7.43a1.39,1.39,0,0,1,.26.13c.08,0,.13.07.12.09a8.79,8.79,0,0,1-.24,1.14l.24.36-.11.05-.07-.19-.34.31-.09-.05.07-.28Zm-3.31,4c.09-.15.2-.23.32-.22a.59.59,0,0,1,.36.23l-.35.22Zm2.95-1.12s.05,0,.09-.07a.32.32,0,0,0,.11,0l0,.2,0,1.47a.55.55,0,0,0-.16,0c-.07-.58-.09-1-.12-1.27A.42.42,0,0,1,147.48,109.68Zm0,1.78.24-.05c.26,1.09.4,1.8.46,2.13a10.69,10.69,0,0,1,.2,2.06c-.09-.19-.16-.34-.22-.43a3.18,3.18,0,0,1-.16-.46,1,1,0,0,0-.16-.34.62.62,0,0,1-.19-.4.28.28,0,0,1,.19-.34Zm-1.55.32a1.64,1.64,0,0,1-.27.52v-.78C145.8,111.63,145.89,111.72,145.89,111.78Zm2,4.89.23.17a4.41,4.41,0,0,1,.54.34,1.2,1.2,0,0,1,.38.35c.13.27.23.46.28.58a5,5,0,0,0,.32.55,3.29,3.29,0,0,1,.39.67c.08.16.19.42.32.74l1.13,2.52a2.44,2.44,0,0,1,.07.39h-.09l-.85-1,.11.65c.22,0,.36.19.46.46a2.17,2.17,0,0,0,.3.67l.12-.17.09.05-.26.4c.17.4.27.61.28.63a2.84,2.84,0,0,0,.2.28,1.63,1.63,0,0,1,.22.26c.17-.13.3-.23.32-.31a.54.54,0,0,0,0-.23.23.23,0,0,0,0-.16.69.69,0,0,1-.39-.34,2.29,2.29,0,0,1-.22-.47l-.23-.46.2.13.11.09.62.83a6.5,6.5,0,0,0,.69.79c.38.39.66.67.86.85a2.91,2.91,0,0,0,1.16.63l-.26.11c.38.54.57.82.58.85a1.68,1.68,0,0,0,.46.42,1.41,1.41,0,0,1,.3.22s0,.12-.11.26l.4.24-.26.2a.91.91,0,0,1-.27.15,3.4,3.4,0,0,1-.51.07l-.61.05.52-1.56a2.56,2.56,0,0,0-1,.78c-.09.19,0,.39.26.65a.56.56,0,0,1-.52,0,2.57,2.57,0,0,1-.43-.24c-.11-.07-.39-.24-.82-.54a.56.56,0,0,0,.2-.59c-.08-.28-.13-.48-.16-.62l-.78.15a10.63,10.63,0,0,0-.63-1.1.54.54,0,0,0-.31-.15.35.35,0,0,1-.17-.16c-.17-.34-.32-.69-.47-1,0-.05-.05-.24-.11-.59a.22.22,0,0,1,.36.08c.12.2.23.28.32.26-.07-.28-.13-.51-.16-.65a1.53,1.53,0,0,0-.26-.59,1.33,1.33,0,0,0-.46-.39,1.16,1.16,0,0,0-.55-.2.55.55,0,0,1-.3-.13.75.75,0,0,1-.16-.24,2.73,2.73,0,0,1-.23-.39.93.93,0,0,0-.31-.36.46.46,0,0,1-.17-.28,1.24,1.24,0,0,1-.07-.38v-.36a.45.45,0,0,0-.24-.26s-.07,0-.09-.07a.1.1,0,0,1,0-.08,1.06,1.06,0,0,0-.16-.81,3.34,3.34,0,0,0-.57-.59s0-.08-.07-.24a1.63,1.63,0,0,0,.47.34c.19.07.36,0,.54-.27l-.58-.24a1.86,1.86,0,0,0,0-.86,1.21,1.21,0,0,0-.38-.69l-.19.35,0-.24c0-.08,0-.11,0-.11.19-.12.32-.17.42-.15A.37.37,0,0,1,147.84,116.66Zm-2,1.13-.52-.2a.61.61,0,0,1-.3-.46l.19.2,0-.52Zm.52-.27.34-.42.27,1.21-.08.08c-.05-.09-.12-.24-.22-.46Zm4,7.7.09.47.15,0-.13-.82.19-.05.39,1.14-.71,0a1.37,1.37,0,0,1-.23-.51C150.08,125.32,150.16,125.26,150.33,125.22Zm-.28,2.61c.15,0,.22,0,.22,0l.92,1.29-.12.09Zm4.54-9.66a6.14,6.14,0,0,0-.13-1,1,1,0,0,1,.17-.89l.27.86-.43-.18a1.38,1.38,0,0,1,.35.81,7.54,7.54,0,0,1,0,.79l-.19,0-.08.55c.19,0,.3.07.32.23a1.32,1.32,0,0,1,0,.38.78.78,0,0,1,0,.48,1.57,1.57,0,0,1-.52.31,5,5,0,0,0-.09-.66c0-.05-.09-.23-.2-.54v-1.2a2.33,2.33,0,0,1,.22.7.71.71,0,0,0,.51.57l-.16-.27-.52-2a.35.35,0,0,1,.31.17A5.65,5.65,0,0,1,154.59,118.17Zm.74.36q.26.3.2.48c-.05.12-.26.23-.59.34ZM161,129.3v-.11c1.1.08,1.76.13,2,.17a2.68,2.68,0,0,1,.85.27,5.38,5.38,0,0,1,.75.43.92.92,0,0,1,.27.38l-.16.15,1,.86-.59.3.92,1.18-.05-.48.34.05.16-.38a1.23,1.23,0,0,0,1.09.82.61.61,0,0,1,.23-.07l.86-.11.69-.78a1.17,1.17,0,0,1-.7.2.75.75,0,0,1-.46-.47.58.58,0,0,0-.31-.23.94.94,0,0,0-.42-.07,1,1,0,0,1-.63-.15,2.46,2.46,0,0,1-.5-.42c0-.05-.34-.34-.87-.83v.57l-.65-1.31,1.2.31,1.09-.28a1.25,1.25,0,0,0,.67.4.82.82,0,0,0,.71,0v.17l.57.32a3.29,3.29,0,0,1,.47.35l.67.54a1.84,1.84,0,0,1,.58.66,1.15,1.15,0,0,0,.4.42l.51.35.23.2a.69.69,0,0,1,.16.22c0,.16.09.24.16.23a.46.46,0,0,0,.16-.11l1.16,1.29-.16.12.4,0v.35l.3-.27a3.91,3.91,0,0,0,.57.81,1.83,1.83,0,0,1,.46.79l.24.23a3,3,0,0,1,.22.23.27.27,0,0,1,0,.15.39.39,0,0,1-.08.2l1.09.3a.4.4,0,0,1-.19.44,1.64,1.64,0,0,0-.44.31h.79l.08-.54,1.27.35a.49.49,0,0,0,.22.46,3.93,3.93,0,0,0,.48.24l2,1.1a1.13,1.13,0,0,0,.24.09l.31.08-1.41.17.15-.3-.07-.09-.47.3-1-.46-.66.48v-.13l-.62-.12c-.23-.05-.43-.08-.61-.11l-2.09-.17v-.12l.5-.32H175s-.05,0-.05,0l-.62.23a.8.8,0,0,1-.66-.26,1.09,1.09,0,0,0-.63-.2,6.43,6.43,0,0,1-.77-.09,3.08,3.08,0,0,1-.54-.17l-.55-.22.07-.16.31.05-.38-.51-.16.59-.44-1-.32.15.16-.35-.44-.31.08-.11.18.13a1.41,1.41,0,0,1,.15-.36c.07-.13.19-.16.36-.12l-.08-.43-.31.2a.61.61,0,0,1-.31.12.59.59,0,0,1-.27-.17,2.8,2.8,0,0,0-.27-.32l.08.36-.08.08-.86-.86.07-.13-.35.09.44.79-.75-.51a6,6,0,0,1-.51-.31c-.34-.3-.59-.51-.78-.66l-1-.74-.44-.4a2,2,0,0,0-.81-.31,6.54,6.54,0,0,1-.82-.16.79.79,0,0,1-.4-.31,4.13,4.13,0,0,0-.35-.43s0-.08-.07-.15,0-.11-.05-.11a1.06,1.06,0,0,1-.74-.5,3.14,3.14,0,0,0-.58-.7.12.12,0,0,1,0-.12,1.1,1.1,0,0,0-.11-.7Zm13.75,4.09.11-.12,5.88,2.62-.42.12v.11l.59.23-.58.09a1.4,1.4,0,0,1-.51,0,.7.7,0,0,1-.31-.15l-.31-.23c-.19-.13-.34-.23-.43-.28a1.94,1.94,0,0,0-.47-.27,4.26,4.26,0,0,1-.52-.31,3.49,3.49,0,0,0-.5-.3c-.61-.3-1.09-.54-1.47-.74a2.17,2.17,0,0,1-.52-.39Zm7.4,3.92a.91.91,0,0,1-.57.23.61.61,0,0,1-.32-.43Zm-11.45-8.68a1.14,1.14,0,0,1-.32-.05,1.61,1.61,0,0,0-.36,0c-.19,0-.3,0-.32-.07a.64.64,0,0,1,0-.36,2.69,2.69,0,0,0,.54.16A.53.53,0,0,1,170.72,128.63Zm-4.79,3.74-.13,0-.43-.62.5-.05-.16.48.3-.15Z"/>
    <path class="cls-2" d="M209.93,83.26a.34.34,0,0,1,0-.43l-.13-.23-.42.57a2.79,2.79,0,0,1,.28.24.35.35,0,0,0,.23.12.83.83,0,0,0,.35,0l.35-.09,0-.15-.28-.12Z"/>
    <path class="cls-2" d="M208.35,82.12a1.47,1.47,0,0,0,.19.44c.07-.32.13-.43.26-.3a.64.64,0,0,0,.47.27l-.51-.75C208.49,81.85,208.35,82,208.35,82.12Z"/>
    <path class="cls-2" d="M209.82,84.74a2.25,2.25,0,0,1,.38.11,1.47,1.47,0,0,0,.63.09.85.85,0,0,0,.32-.38l.62-.22-.57-.59v.44a.87.87,0,0,0-.43-.19c-.15,0-.26.09-.35.3l-.78-.61.22.44-.08.07-1.09-1.36c.35.92.52,1.39.54,1.43a.51.51,0,0,0,.23.32Z"/>
    <path class="cls-2" d="M217.42,88.59a.33.33,0,0,0,0,.19.61.61,0,0,0,.24.11h0l.17-.05A1.1,1.1,0,0,0,217.42,88.59Z"/>
    <path class="cls-2" d="M200.45,80.51l.36.43-.12.2h.39v-.43Z"/>
    <path class="cls-2" d="M196.75,140.5v-.12a3.56,3.56,0,0,0-.66.09,1,1,0,0,0-.58.38Z"/>
    <path class="cls-2" d="M199.54,138.71a.44.44,0,0,0-.36.2.9.9,0,0,0-.15.48l.92-.22.17-.28-.78.23,0-.08.36-.23Z"/>
    <path class="cls-2" d="M181.15,133.1l.43.05-.15-.35h-.67A.82.82,0,0,0,181.15,133.1Z"/>
    <path class="cls-2" d="M151.94,105l.17,0a1.15,1.15,0,0,0-.07-.17,3.35,3.35,0,0,0-.4-.35v.83A3.23,3.23,0,0,1,151.94,105Z"/>
    <path class="cls-2" d="M153.78,114.89a.44.44,0,0,0-.38,0,.4.4,0,0,0-.17.34,6.27,6.27,0,0,0,.11,1.16c0,.05.05.11.13.17l.26.2s0-.09,0-.26a.19.19,0,0,1,0-.12.36.36,0,0,0,.26-.4c-.07-.22-.12-.36-.16-.47a1.11,1.11,0,0,1,0-.32C153.79,115.06,153.79,115,153.78,114.89Z"/>
    <path class="cls-2" d="M173.08,84.87h.12v.32c.35-.26.62-.43.79-.54s.48-.28.65-.36l-2.18.58.54.44Z"/>
    <path class="cls-2" d="M149.35,120.18c-.08.32-.09.54,0,.65s.24.09.5,0Z"/>
    <path class="cls-2" d="M167.35,133.2a.53.53,0,0,0-.44-.16s-.07.05-.11.16a.76.76,0,0,0-.05.2,1.75,1.75,0,0,0,.13.35,2.21,2.21,0,0,1,.11.32.3.3,0,0,0,.13.3,1.71,1.71,0,0,0,.42,0l-.36-.31c-.08-.11,0-.2.16-.3s.26-.19.2-.31A2.65,2.65,0,0,1,167.35,133.2Z"/>
    <path class="cls-2" d="M168.07,134.48l-.57.17.89.3Z"/>
    <path class="cls-2" d="M170.93,57.77c0,.07.05.13.19.19l.34.07A4.78,4.78,0,0,1,170.93,57.77Z"/>
    <path class="cls-2" d="M169.12,93.31l-.07-.09.66-.9-.09-.09-.75.61-.12-.2-.59.63.23.31-.43-.12-.08.86-.16.08.27,0,.67-1,.75.3.24-.89Z"/>
    <path class="cls-2" d="M167.6,94.36a.35.35,0,0,1-.07.08l.18-.05Z"/>
    <path class="cls-2" d="M184.59,59.74c-.17-.11-.31-.38-.39-.86a3.72,3.72,0,0,1-1-.26,5.51,5.51,0,0,0-.87-.27,7.51,7.51,0,0,0,.79.54,1.2,1.2,0,0,1,.44.55,1.87,1.87,0,0,0,.66.66.47.47,0,0,1,.24.62,8.4,8.4,0,0,1,1,.05l-.24-.22a.64.64,0,0,0-.32-.16.16.16,0,0,1-.11-.15,1.16,1.16,0,0,0,.58-.15c.07,0,.09-.05.09-.08A4,4,0,0,1,184.59,59.74Z"/>
    <path class="cls-2" d="M192.27,60.22l-.2-.32-.12,0a2,2,0,0,1,0,.35.58.58,0,0,0,.09.3,13.71,13.71,0,0,0,1.12,1.18.53.53,0,0,0,.2.05.78.78,0,0,1,.26,0,.45.45,0,0,0,0,.65,2,2,0,0,1,.43.46l.87-.13-.4-.75-.17.43h-.07c0-.15,0-.26,0-.32s0-.22-.05-.26a9.86,9.86,0,0,1-.74-1,1.31,1.31,0,0,0-1.08-.51S192.36,60.35,192.27,60.22Z"/>
    <path class="cls-2" d="M194.48,63.06c-.08.05-.11.08-.12.12,0,.2,0,.31.19.35s.34.08.36.13l.12-.09-.44-.55S194.53,63,194.48,63.06Z"/>
    <path class="cls-2" d="M187.18,87.4c-.12-.23-.23-.34-.32-.34a.93.93,0,0,0-.51.3Z"/>
    <path class="cls-2" d="M217.64,101.06a.23.23,0,0,0-.3.24c0,.26-.08.39-.13.43l.42,0v-.05h.05l-.16.3.11.07.17-.2c.05-.07.09-.13.08-.17a1.82,1.82,0,0,0-.08-.39A.36.36,0,0,0,217.64,101.06Z"/>
    <path class="cls-2" d="M214.53,112.95a2.94,2.94,0,0,1-.27.81c.27-.34.42-.46.46-.34l.26-.67-.3.15.05-.42C214.53,112.61,214.46,112.76,214.53,112.95Z"/>
    <path class="cls-2" d="M212.77,116.56c0-.05-.15.3-.55,1.09a3.82,3.82,0,0,1,.51-.47,13.14,13.14,0,0,1,1-1.79,3.07,3.07,0,0,0,.42-1.1c-.47.34-.75.58-.82.78S213.06,115.67,212.77,116.56Z"/>
    <path class="cls-2" d="M210.52,120.05a4.29,4.29,0,0,0,.5-1.18,7.17,7.17,0,0,1-.79,1,1.31,1.31,0,0,0-.36.94C210.24,120.4,210.47,120.14,210.52,120.05Z"/>
    <path class="cls-2" d="M215.69,120.85a.35.35,0,0,0-.08-.19q-.1-.22,0-.28s.11-.05.27-.09a4.46,4.46,0,0,0,.51-.22l-.05-.18H216a1,1,0,0,0-.31,0,.72.72,0,0,0-.23.16l-.31.27,0,.77.62-.11A1.13,1.13,0,0,0,215.69,120.85Z"/>
    <path class="cls-2" d="M210.32,121.55a.7.7,0,0,0-.57.05,1.21,1.21,0,0,0-.24.43,2.22,2.22,0,0,1-.23.54.69.69,0,0,1-.62.23l.26.2c.08.05.13.09.16.07a2.12,2.12,0,0,0,.58-.27,1,1,0,0,0,.35-.55,1,1,0,0,1,.15-.35Z"/>
    <path class="cls-2" d="M209.85,121.14c-.16-.05-.26-.05-.31,0a2.6,2.6,0,0,0-.22.62Z"/>
    <path class="cls-2" d="M208.34,123.12a4,4,0,0,0,.58-.89.5.5,0,0,0-.58.08,2.57,2.57,0,0,0-.48.93A.43.43,0,0,0,208.34,123.12Z"/>
    <path class="cls-2" d="M208.61,123.85l-.42-.23-.32.3.4.42Z"/>
    <path class="cls-2" d="M216,128.09a3.68,3.68,0,0,1,.43-.57,1.06,1.06,0,0,0-1.06,1A1,1,0,0,0,216,128.09Z"/>
    <path class="cls-2" d="M217.49,126.57a.72.72,0,0,0-.2.51l.74-.66A.74.74,0,0,0,217.49,126.57Z"/>
    <path class="cls-2" d="M184.42,142.44a.31.31,0,0,1-.2,0c-.34-.12-.52,0-.58.28l-.52.09v.2l.4,0a1.52,1.52,0,0,0,.36,0,.79.79,0,0,0,.22-.13,2.43,2.43,0,0,0,.2-.22c.13.15.2.15.26,0s.07-.27.11-.3Z"/>
    <path class="cls-2" d="M183.79,144c0-.13-.13-.22-.34-.22a1,1,0,0,0-.63.17l.77-.08-.12.52h.59l.66-.19v-.12Z"/>
    <path class="cls-2" d="M211.61,132.3a1,1,0,0,0-.24.27,2.14,2.14,0,0,1-.13.27.75.75,0,0,1-.15.23,3.94,3.94,0,0,1-.75.44,1,1,0,0,0-.16.13s-.07.07-.07.08.09.17,0,.23a.37.37,0,0,1-.2.12,2.42,2.42,0,0,1-.26.12l-.27.11.08.12c.78-.35,1.17-.55,1.2-.57a2,2,0,0,0,.85-1l.23.12v-.3l.11-.31a1.31,1.31,0,0,1-.15,0A.2.2,0,0,0,211.61,132.3Z"/>
    <path class="cls-2" d="M208.24,133.51c0,.11-.07.17-.12.2a.41.41,0,0,0-.27.38c-.05.3-.07.44-.08.47l.15.07c.24-.52.4-.87.46-1a.22.22,0,0,0,0-.18l-.08-.2A2.33,2.33,0,0,0,208.24,133.51Z"/>
    <path class="cls-2" d="M210.41,134.82l0-.07-4.2,1.82a.35.35,0,0,1,.35.09,1.46,1.46,0,0,1,.22.38.66.66,0,0,0,.13-.27c0-.2,0-.32,0-.35s.15-.08.36-.13.38-.11.48-.12a6,6,0,0,0,1.88-.92Z"/>
    <path class="cls-2" d="M205.35,135.57c.42.16.7.12.82-.13h-.26l.67-.62a1.19,1.19,0,0,0-.69.27C205.77,135.19,205.58,135.36,205.35,135.57Z"/>
    <path class="cls-2" d="M175.82,55.05l.9,1,.22-.57-1.29-.7A1.87,1.87,0,0,0,175.82,55.05Z"/>
    <path class="cls-2" d="M176.73,56a2.5,2.5,0,0,0,.4.23s.43.17,1.25.48v-.32l-1.2-.73Z"/>
    <path class="cls-2" d="M161.92,59.52a1.77,1.77,0,0,1-.36-.07.54.54,0,0,0-.3,0,1.83,1.83,0,0,1-1.25.07,3,3,0,0,1-1.08-.62.93.93,0,0,0-.58-.19l-.61.07c-.2.16-.23.31-.07.43l.38.27a1.35,1.35,0,0,1-.2.23.33.33,0,0,0-.08.19c.05.12.12.16.2.13l.24-.13c.27-.13.42-.07.47.19,0,0,.07.09.17.15l.28.16-.05-.27.61.16a5,5,0,0,0,.59.13,1.17,1.17,0,0,0,.31,0c.12,0,.18-.07.19-.11a.33.33,0,0,1,.27-.28h.32a.6.6,0,0,0,.38-.13A.76.76,0,0,0,161.92,59.52Z"/>
    <path class="cls-2" d="M169.69,58.16h.09v-.28h-.38s0-.08-.11-.15a1.37,1.37,0,0,1-.16-.52,2.47,2.47,0,0,0-.59-.09h-.09a3.05,3.05,0,0,0,.62.55C169.42,57.95,169.62,58.09,169.69,58.16Z"/>
    <path class="cls-2" d="M151.36,68.31a3.07,3.07,0,0,0,1.6-.46l0-.35a6.94,6.94,0,0,1-1.66.31,5.48,5.48,0,0,0-1.64.38Q151.14,68.31,151.36,68.31Z"/>
    <path class="cls-2" d="M155.72,67l-1.45.23.16.34a2,2,0,0,1,.7-.11.9.9,0,0,0,.65-.27Z"/>
    <path class="cls-2" d="M152,74.57l-1,.35a1,1,0,0,0,.66,0Q152,74.81,152,74.57Z"/>
    <path class="cls-2" d="M152.69,74.84,152,75c.19,0,.28.11.28.23a2.31,2.31,0,0,1-.11.35h.16Z"/>
    <path class="cls-2" d="M151.61,75.87l-.79.15c-.05.11-.11.24-.19.4a2.2,2.2,0,0,1-.2.32c.36-.12.61-.22.7-.26A1,1,0,0,0,151.61,75.87Z"/>
    <path class="cls-2" d="M151,76.76a1,1,0,0,1-.13.35.45.45,0,0,1-.39.07.27.27,0,0,0-.15.09.86.86,0,0,0-.17.16.53.53,0,0,1,.16.51,2.92,2.92,0,0,1-.26.48l1.17-.48-.23.34a1.31,1.31,0,0,0,1.1,0c.09,0,.39-.27.9-.65l-.05-.15-.34.17a1,1,0,0,0-.32.19,1,1,0,0,1-.48.32.93.93,0,0,1-.48-.28c.19-.22.27-.39.23-.51A2.3,2.3,0,0,0,151,76.76Z"/>
    <path class="cls-2" d="M148.72,77.58a1,1,0,0,0,.23.16,1.29,1.29,0,0,0,.77-.31,7,7,0,0,1,.7-.48s0-.05,0-.16a1,1,0,0,0-.87.52Z"/>
    <path class="cls-2" d="M141.38,89.11l-.11-.13-.69.48a.75.75,0,0,1,.19.12c.07,0,.11,0,.12,0S141.16,89.37,141.38,89.11Z"/>
    <path class="cls-2" d="M141.44,93.69a.41.41,0,0,0-.4.11,3.69,3.69,0,0,0-.38.62.5.5,0,0,0,.46-.26A2.65,2.65,0,0,1,141.44,93.69Z"/>
    <path class="cls-2" d="M174.59,88.16a2.35,2.35,0,0,0,.36-.07,3.11,3.11,0,0,0,.54-.22,2.76,2.76,0,0,1-.2-.2c-.07-.07-.11-.08-.15-.07a8.09,8.09,0,0,0-.79.3Z"/>
    <path class="cls-2" d="M166.38,96.46l-.2-.13a.64.64,0,0,0-.19-.08c-.23,0-.38,0-.43,0a.75.75,0,0,0-.15.26c0,.08-.08.19-.13.35l.63-.05-.24.34a.59.59,0,0,0,.46-.22A1,1,0,0,0,166.38,96.46Z"/>
    <path class="cls-2" d="M138.88,93.89a.83.83,0,0,0-1,.11,4.53,4.53,0,0,1-.75.58l-.07-.3-.87,1.33a.26.26,0,0,0,0,.16.32.32,0,0,0,0,.16c.05.08.17.31.4.65l.3-.26a1.54,1.54,0,0,1,.31-.18s.16-.17.43-.48.36-.16.62.07c0,0,.07,0,.16-.05.26-.12.69-.34,1.29-.67a1.47,1.47,0,0,0-.47-.27.6.6,0,0,0-.51.09Z"/>
    <path class="cls-2" d="M141.72,103.31h0l.09-1c0-.2,0-.31-.09-.36a.61.61,0,0,0-.43.07c.13.38.22.57.23.59Z"/>
    <path class="cls-2" d="M141.72,104.47l0,.05s0,.07-.05.07c-.2.15-.19.31,0,.51a1.22,1.22,0,0,0,.22.13l.3.12-.35-1.63a1.47,1.47,0,0,1-.17.38A.29.29,0,0,0,141.72,104.47Z"/>
    <path class="cls-2" d="M171.69,143.61a.47.47,0,0,0,.55.24,1,1,0,0,1,.55,0l0-.2-1.83-.39c-.15.22-.07.34.2.34h.28C171.6,143.55,171.67,143.57,171.69,143.61Z"/>
    <path class="cls-2" d="M173.43,143.7s0,.05,0,.13,0,.12,0,.13a.52.52,0,0,0,.4.12.66.66,0,0,0,.12-.17c.05-.09.08-.16.11-.22l-.09-.12A4.43,4.43,0,0,0,173.43,143.7Z"/>
    <path class="cls-2" d="M104.17,159.45a5.41,5.41,0,0,1,.28-1.68,5.13,5.13,0,0,1,.8-1.54,4.39,4.39,0,0,1,1.28-1.13,3.29,3.29,0,0,1,1.7-.44h12.84a1.05,1.05,0,1,1,0,2.11H108.68a2.46,2.46,0,0,0-1.24.27,2.3,2.3,0,0,0-.75.67,2.35,2.35,0,0,0-.37.87,3.85,3.85,0,0,0,0,1.74,2.34,2.34,0,0,0,.37.87,2.29,2.29,0,0,0,.75.67,2.46,2.46,0,0,0,1.24.27h12.37a1.05,1.05,0,1,1,0,2.11H108a3,3,0,0,1-1.61-.44,4.19,4.19,0,0,1-1.2-1.13,5.35,5.35,0,0,1-.76-1.55A5.65,5.65,0,0,1,104.17,159.45Z"/>
    <path class="cls-2" d="M139.21,158.59a2.35,2.35,0,0,0-.37-.87,2.27,2.27,0,0,0-.76-.67,2.48,2.48,0,0,0-1.23-.27H128.9a2.46,2.46,0,0,0-1.24.27,2.3,2.3,0,0,0-.75.67,2.35,2.35,0,0,0-.37.87,4.26,4.26,0,0,0-.1.87v3.74a1.06,1.06,0,1,1-2.11,0v-3.74a5.41,5.41,0,0,1,.28-1.68,5.13,5.13,0,0,1,.8-1.54,4.39,4.39,0,0,1,1.28-1.13,3.29,3.29,0,0,1,1.7-.44h9.23a3.22,3.22,0,0,1,1.61.49,4.42,4.42,0,0,1,1.2,1.13,5.26,5.26,0,0,1,.76,1.52,5.45,5.45,0,0,1,.26,1.65v3.74a1.06,1.06,0,1,1-2.11,0v-3.74A4.26,4.26,0,0,0,139.21,158.59Z"/>
    <path class="cls-2" d="M161.57,159.45a5.44,5.44,0,0,1-.26,1.65,5.25,5.25,0,0,1-.76,1.52,4.4,4.4,0,0,1-1.2,1.13,3.22,3.22,0,0,1-1.61.49H144.68a1.05,1.05,0,0,1-1.06-1.06v-7.47a1.05,1.05,0,0,1,1.06-1.05h12.84a3.29,3.29,0,0,1,1.7.44,4.39,4.39,0,0,1,1.28,1.13,5.14,5.14,0,0,1,.8,1.54A5.42,5.42,0,0,1,161.57,159.45Zm-15.83-2.68v5.36h11.32a2.47,2.47,0,0,0,1.23-.27,2.27,2.27,0,0,0,.76-.67,2.35,2.35,0,0,0,.37-.87,3.85,3.85,0,0,0,0-1.74,2.35,2.35,0,0,0-.37-.87,2.27,2.27,0,0,0-.76-.67,2.48,2.48,0,0,0-1.23-.27Z"/>
    <path class="cls-2" d="M181,163.19a1.05,1.05,0,0,1-1.06,1.06.87.87,0,0,1-.4-.09,1.6,1.6,0,0,1-.33-.22l-.2-.22a8.45,8.45,0,0,0-1.86-1.76,7.84,7.84,0,0,0-2-1,9.59,9.59,0,0,0-2.23-.41q-1.18-.08-2.52-.08h-4.49v2.68a1,1,0,0,1-.32.75,1,1,0,0,1-.74.31,1.05,1.05,0,0,1-1.06-1.06v-5.65a2.81,2.81,0,0,1,.24-1.19,3.06,3.06,0,0,1,.62-.9,2.74,2.74,0,0,1,.86-.58,2.43,2.43,0,0,1,1-.21H178a3,3,0,0,1,1.17.23,3.2,3.2,0,0,1,1,.63,3,3,0,0,1,.66.92,2.71,2.71,0,0,1,.24,1.14,1.06,1.06,0,1,1-2.11,0,.73.73,0,0,0-.23-.55,1,1,0,0,0-.54-.26H166.57a.71.71,0,0,0-.46.14.6.6,0,0,0-.22.34v1.14h4.49a25.34,25.34,0,0,1,3.5.22,12.59,12.59,0,0,1,2.83.71,8.62,8.62,0,0,1,2.27,1.3,8.94,8.94,0,0,1,1.79,2A1,1,0,0,1,181,163.19Z"/>
    <path class="cls-2" d="M185.06,163.85a1.05,1.05,0,0,1-1.87-.66.91.91,0,0,1,.22-.64l5.35-7.19a2.92,2.92,0,0,1,2.31-1.14,2.86,2.86,0,0,1,1.26.29,2.57,2.57,0,0,1,1,.79l5.35,7.14a1.52,1.52,0,0,1,.22.34,1,1,0,0,1,.09.41,1.05,1.05,0,0,1-1.06,1.06,1,1,0,0,1-.84-.42L191.93,157a4.82,4.82,0,0,0-.39-.38.64.64,0,0,0-.95,0,2.84,2.84,0,0,0-.36.38Zm4.65-2a1.35,1.35,0,1,1,.4,1A1.31,1.31,0,0,1,189.71,161.87Z"/>
    <path class="cls-2" d="M206.42,159.45a1.05,1.05,0,0,1,1.06-1.05h8.43a2.59,2.59,0,0,1,1,.21,2.71,2.71,0,0,1,.85.57,2.52,2.52,0,0,1,.56.86,2.78,2.78,0,0,1,.2,1v.48a2.78,2.78,0,0,1-.2,1,2.52,2.52,0,0,1-.56.86,2.7,2.7,0,0,1-.85.57,2.58,2.58,0,0,1-1,.21H204.44a3,3,0,0,1-1.61-.44,4.19,4.19,0,0,1-1.2-1.13,5.35,5.35,0,0,1-.76-1.55,5.65,5.65,0,0,1-.26-1.67,5.41,5.41,0,0,1,.28-1.68,5.13,5.13,0,0,1,.8-1.54A4.39,4.39,0,0,1,203,155.1a3.29,3.29,0,0,1,1.7-.44H217.5a1.05,1.05,0,1,1,0,2.11H205.15a2.46,2.46,0,0,0-1.24.27,2.3,2.3,0,0,0-.75.67,2.35,2.35,0,0,0-.37.87,3.85,3.85,0,0,0,0,1.74,2.34,2.34,0,0,0,.37.87,2.29,2.29,0,0,0,.75.67,2.46,2.46,0,0,0,1.24.27h10.68a.62.62,0,0,0,.47-.24.85.85,0,0,0,.21-.57.91.91,0,0,0-.19-.57.6.6,0,0,0-.5-.24h-8.34a1.05,1.05,0,0,1-1.06-1.05Z"/>
    <path class="cls-2" d="M238.68,159.45a5.41,5.41,0,0,1-.28,1.68,5.14,5.14,0,0,1-.8,1.54,4.39,4.39,0,0,1-1.28,1.13,3.28,3.28,0,0,1-1.7.44h-10a3.22,3.22,0,0,1-1.61-.49,4.4,4.4,0,0,1-1.2-1.13,5.25,5.25,0,0,1-.76-1.52,5.27,5.27,0,0,1,0-3.33,5.13,5.13,0,0,1,.8-1.54,4.39,4.39,0,0,1,1.28-1.13,3.29,3.29,0,0,1,1.7-.44h10a3.22,3.22,0,0,1,1.61.49,4.42,4.42,0,0,1,1.2,1.13,5.26,5.26,0,0,1,.76,1.52A5.45,5.45,0,0,1,238.68,159.45Zm-3.28,2.41a2.27,2.27,0,0,0,.76-.67,2.35,2.35,0,0,0,.37-.87,3.85,3.85,0,0,0,0-1.74,2.35,2.35,0,0,0-.37-.87,2.27,2.27,0,0,0-.76-.67,2.48,2.48,0,0,0-1.23-.27h-8.9A2.46,2.46,0,0,0,224,157a2.3,2.3,0,0,0-.75.67,2.35,2.35,0,0,0-.37.87,3.85,3.85,0,0,0,0,1.74,2.34,2.34,0,0,0,.37.87,2.29,2.29,0,0,0,.75.67,2.46,2.46,0,0,0,1.24.27h8.9A2.47,2.47,0,0,0,235.4,161.86Z"/>
    <path class="cls-2" d="M255.78,158.59a2.35,2.35,0,0,0-.37-.87,2.27,2.27,0,0,0-.76-.67,2.48,2.48,0,0,0-1.23-.27h-7.95a2.46,2.46,0,0,0-1.24.27,2.3,2.3,0,0,0-.75.67,2.35,2.35,0,0,0-.37.87,4.26,4.26,0,0,0-.1.87v3.74a1.06,1.06,0,1,1-2.11,0v-3.74a5.41,5.41,0,0,1,.28-1.68,5.13,5.13,0,0,1,.8-1.54,4.39,4.39,0,0,1,1.28-1.13,3.29,3.29,0,0,1,1.7-.44h9.23a3.22,3.22,0,0,1,1.61.49,4.42,4.42,0,0,1,1.2,1.13,5.26,5.26,0,0,1,.76,1.52,5.45,5.45,0,0,1,.26,1.65v3.74a1.06,1.06,0,1,1-2.11,0v-3.74A4.26,4.26,0,0,0,255.78,158.59Z"/>
    <path class="cls-2" d="M144.38,194.47c0,.38-.08.58-.32.7a3.55,3.55,0,0,1-1.31.13,3.52,3.52,0,0,0-.2-.65c.47,0,.89,0,1,0s.19-.05.19-.2v-2.6h-1.64a9.84,9.84,0,0,1-.78,3.53,3,3,0,0,0-.56-.33,12.23,12.23,0,0,0,.77-5.07v-3.74h2.84Zm-.63-3.26v-1.86h-1.58V190c0,.38,0,.79,0,1.22Zm-1.58-4.32v1.82h1.58v-1.82Zm7.57,3.73a6.77,6.77,0,0,1-1.89,3,6.92,6.92,0,0,0,2.53,1.15,2.73,2.73,0,0,0-.41.62,7.21,7.21,0,0,1-2.63-1.34,8.34,8.34,0,0,1-2.58,1.3,3.13,3.13,0,0,0-.34-.61,7.43,7.43,0,0,0,2.44-1.14,7.47,7.47,0,0,1-1.61-2.48l.09,0h-.54v-.66h4.43l.1,0Zm-3.32-3.2a3.08,3.08,0,0,1-1.47,2.78,3,3,0,0,0-.44-.5,2.46,2.46,0,0,0,1.29-2.29v-1.15h3.15v2.45c0,.29,0,.39.16.39h.66a2.11,2.11,0,0,0,.44-.05c0,.18,0,.44.05.61a1.63,1.63,0,0,1-.49.05h-.7c-.63,0-.75-.27-.75-1v-1.78h-1.88Zm-.55,3.7a6.25,6.25,0,0,0,1.48,2.11,5.9,5.9,0,0,0,1.54-2.11Z"/>
    <path class="cls-2" d="M154.34,193.25a8.76,8.76,0,0,1-2.5,2,5.79,5.79,0,0,0-.53-.46A7,7,0,0,0,153.7,193Zm6.34-1.09v.58h-4.3v1.89c0,.38-.08.55-.38.66a5.52,5.52,0,0,1-1.55.11,2.46,2.46,0,0,0-.23-.64c.62,0,1.11,0,1.27,0s.18,0,.18-.17v-1.87H151.4v-.58Zm-6.22-5.29h-3v-.58h9v.58h-3v.86H160v2.36h-7.85v-2.36h2.33Zm-1.79,4.51v-.56h6.74v.56Zm.1-1.84h1.68v-1.28h-1.68Zm4.09-2.68h-1.76v.86h1.76Zm-1.76,2.68h1.76v-1.28h-1.76Zm2.41-1.28v1.28h1.77v-1.28Zm.55,4.79a17.81,17.81,0,0,1,2.54,1.64l-.53.42a16.49,16.49,0,0,0-2.51-1.69Z"/>
    <path class="cls-2" d="M165.25,186.18a14.5,14.5,0,0,1-1.15,2.14v7h-.7v-6a11.5,11.5,0,0,1-1.46,1.6,4.47,4.47,0,0,0-.41-.66A11.79,11.79,0,0,0,164.6,186Zm2.74,3.51c.38,2.83,1.09,4.78,2.26,4.87.29,0,.48-.61.6-1.83a2.27,2.27,0,0,0,.57.36c-.22,1.76-.61,2.31-1.15,2.29-1.72-.12-2.54-2.33-2.95-5.61l-2.59.33-.1-.66,2.61-.32c-.09-1-.17-2-.22-3.1h.7c0,1.07.1,2.09.2,3l3.17-.39.1.64Zm2.46-1.53a11.22,11.22,0,0,0-1.74-1.72l.5-.32a11.91,11.91,0,0,1,1.77,1.66Z"/>
    <path class="cls-2" d="M172.28,186.43h3.53v.65h-1.57a16.81,16.81,0,0,1-.67,2.55h1.92v4.43h-1.92v.86H173V191a7,7,0,0,1-.58.9,3,3,0,0,0-.33-.7,10.28,10.28,0,0,0,1.53-4.15h-1.31Zm2.6,3.83h-1.31v3.18h1.31ZM180,193.1h-4v-.64h4Zm1.48-2.68s0,.23,0,.32c-.24,2.82-.48,3.9-.85,4.27a.89.89,0,0,1-.7.29,10,10,0,0,1-1.23,0,1.57,1.57,0,0,0-.2-.64,11.66,11.66,0,0,0,1.18.05.46.46,0,0,0,.4-.12c.27-.27.51-1.22.72-3.56h-4.26c.13-.84.26-2.21.33-3.2l.65,0c-.06.79-.17,1.78-.26,2.55h2.28c.14-1.07.27-2.38.36-3.29h-3.52v-.64H180l.12,0,.49.05c-.08,1.07-.26,2.63-.42,3.91Z"/>
    <path class="cls-2" d="M184,188.74a.75.75,0,1,1,1.5,0,.75.75,0,0,1-1.5,0Zm0,5.14a.75.75,0,1,1,.75.74A.73.73,0,0,1,184,193.88Z"/>
    <path class="cls-2" d="M187.85,192.69a2.5,2.5,0,0,1,1.42-2.13v0a2.12,2.12,0,0,1-1-1.76,2.07,2.07,0,0,1,4.14.08,2.58,2.58,0,0,1-1,1.86v.05a2.24,2.24,0,0,1,1.3,2,2.12,2.12,0,0,1-2.36,2A2.18,2.18,0,0,1,187.85,192.69Zm4,.05c0-1.07-1-1.46-2.09-1.91a2.15,2.15,0,0,0-1.11,1.8,1.53,1.53,0,0,0,1.66,1.46A1.39,1.39,0,0,0,191.82,192.74Zm-.19-3.86a1.32,1.32,0,0,0-1.36-1.41,1.22,1.22,0,0,0-1.25,1.29c0,1,.87,1.36,1.78,1.71A2.09,2.09,0,0,0,191.63,188.89Z"/>
    <path class="cls-2" d="M193.43,193.68l.44-.55a2.57,2.57,0,0,0,1.93.89,1.46,1.46,0,0,0,1.6-1.48c0-1-.65-1.59-2.42-1.59v-.67c1.6,0,2.15-.66,2.15-1.52a1.23,1.23,0,0,0-1.34-1.28,2.34,2.34,0,0,0-1.61.77l-.47-.55a3.11,3.11,0,0,1,2.11-.91,1.93,1.93,0,0,1,2.17,1.9,1.89,1.89,0,0,1-1.37,1.86v0a2,2,0,0,1,1.63,2,2.19,2.19,0,0,1-2.4,2.17A3.13,3.13,0,0,1,193.43,193.68Z"/>
    <path class="cls-2" d="M199.17,193.68l.44-.55a2.57,2.57,0,0,0,1.93.89,1.46,1.46,0,0,0,1.6-1.48c0-1-.65-1.59-2.42-1.59v-.67c1.6,0,2.15-.66,2.15-1.52a1.23,1.23,0,0,0-1.34-1.28,2.34,2.34,0,0,0-1.61.77l-.47-.55a3.11,3.11,0,0,1,2.11-.91,1.93,1.93,0,0,1,2.17,1.9,1.89,1.89,0,0,1-1.37,1.86v0a2,2,0,0,1,1.63,2,2.19,2.19,0,0,1-2.4,2.17A3.13,3.13,0,0,1,199.17,193.68Z"/>
    <path class="cls-2" d="M205.06,192.69a2.5,2.5,0,0,1,1.42-2.13v0a2.12,2.12,0,0,1-1-1.76,2.07,2.07,0,0,1,4.14.08,2.58,2.58,0,0,1-1,1.86v.05a2.24,2.24,0,0,1,1.3,2,2.12,2.12,0,0,1-2.36,2A2.18,2.18,0,0,1,205.06,192.69Zm4,.05c0-1.07-1-1.46-2.09-1.91a2.15,2.15,0,0,0-1.11,1.8,1.53,1.53,0,0,0,1.66,1.46A1.39,1.39,0,0,0,209,192.74Zm-.19-3.86a1.32,1.32,0,0,0-1.36-1.41,1.22,1.22,0,0,0-1.25,1.29c0,1,.87,1.36,1.78,1.71A2.09,2.09,0,0,0,208.84,188.89Z"/>
    <path class="cls-2" d="M215.73,192.46h-1v2.13h-.8v-2.13h-3.36v-.55l3.25-5h.91v4.84h1Zm-1.85-.68v-2.49c0-.38,0-1,.06-1.36h-.05c-.19.37-.4.74-.61,1.11l-1.85,2.74Z"/>
    <path class="cls-2" d="M220.33,187.67h-3.75v-.73h4.74v.51c-1.81,2.33-2.14,4.15-2.27,7.14h-.89A11.42,11.42,0,0,1,220.33,187.67Z"/>
</svg>